<svg width="1440" height="1008" viewBox="0 0 1440 1008" fill="none" xmlns="http://www.w3.org/2000/svg">
<g id="Vector">
<mask id="path-1-inside-1_359_222" fill="white">
<path d="M48.2621 955.214C48.2621 969.021 37.4583 980.214 24.1311 980.214C10.8038 980.214 0 969.021 0 955.214C0 941.407 10.8038 930.213 24.1311 930.213C37.4583 930.213 48.2621 941.407 48.2621 955.214Z"/>
<path d="M244.464 911.659C244.464 925.466 233.66 936.659 220.333 936.659C207.005 936.659 196.202 925.466 196.202 911.659C196.202 897.852 207.005 886.659 220.333 886.659C233.66 886.659 244.464 897.852 244.464 911.659Z"/>
<path d="M128.313 926.001C128.313 939.808 117.509 951.001 104.182 951.001C90.8549 951.001 80.0511 939.808 80.0511 926.001C80.0511 912.193 90.8549 901 104.182 901C117.509 901 128.313 912.193 128.313 926.001Z"/>
<path d="M176.575 962.405C176.575 976.212 165.771 987.405 152.444 987.405C139.117 987.405 128.313 976.212 128.313 962.405C128.313 948.598 139.117 937.405 152.444 937.405C165.771 937.405 176.575 948.598 176.575 962.405Z"/>
<path d="M387.256 967.405C387.256 981.212 376.452 992.405 363.125 992.405C349.797 992.405 338.993 981.212 338.993 967.405C338.993 953.598 349.797 942.405 363.125 942.405C376.452 942.405 387.256 953.598 387.256 967.405Z"/>
<path d="M248.229 982.405C248.229 996.212 237.425 1007.41 224.098 1007.41C210.77 1007.41 199.966 996.212 199.966 982.405C199.966 968.598 210.77 957.405 224.098 957.405C237.425 957.405 248.229 968.598 248.229 982.405Z"/>
<path d="M437.851 888.809C437.851 902.616 427.047 913.809 413.72 913.809C400.392 913.809 389.589 902.616 389.589 888.809C389.589 875.002 400.392 863.809 413.72 863.809C427.047 863.809 437.851 875.002 437.851 888.809Z"/>
<path d="M530.562 966C530.562 979.808 519.758 991.001 506.431 991.001C493.104 991.001 482.3 979.808 482.3 966C482.3 952.193 493.104 941.001 506.431 941.001C519.758 941.001 530.562 952.193 530.562 966Z"/>
<path d="M658.875 962.405C658.875 976.212 648.071 987.405 634.744 987.405C621.417 987.405 610.613 976.212 610.613 962.405C610.613 948.598 621.417 937.405 634.744 937.405C648.071 937.405 658.875 948.598 658.875 962.405Z"/>
<path d="M580.9 932.405C580.9 946.212 570.096 957.405 556.769 957.405C543.442 957.405 532.638 946.212 532.638 932.405C532.638 918.598 543.442 907.405 556.769 907.405C570.096 907.405 580.9 918.598 580.9 932.405Z"/>
<path d="M791.58 937.405C791.58 951.212 780.776 962.405 767.449 962.405C754.122 962.405 743.318 951.212 743.318 937.405C743.318 923.598 754.122 912.405 767.449 912.405C780.776 912.405 791.58 923.598 791.58 937.405Z"/>
<path d="M950.492 951.659C950.492 965.466 939.688 976.659 926.361 976.659C913.034 976.659 902.23 965.466 902.23 951.659C902.23 937.852 913.034 926.659 926.361 926.659C939.688 926.659 950.492 937.852 950.492 951.659Z"/>
<path d="M1155.91 938.809C1155.91 952.616 1145.11 963.809 1131.78 963.809C1118.45 963.809 1107.65 952.616 1107.65 938.809C1107.65 925.002 1118.45 913.809 1131.78 913.809C1145.11 913.809 1155.91 925.002 1155.91 938.809Z"/>
<path d="M1178.98 980.214C1178.98 994.021 1168.18 1005.21 1154.85 1005.21C1141.52 1005.21 1130.72 994.021 1130.72 980.214C1130.72 966.406 1141.52 955.214 1154.85 955.214C1168.18 955.214 1178.98 966.406 1178.98 980.214Z"/>
<path d="M1328.18 971.001C1328.18 984.808 1317.37 996.001 1304.05 996.001C1290.72 996.001 1279.91 984.808 1279.91 971.001C1279.91 957.194 1290.72 946.001 1304.05 946.001C1317.37 946.001 1328.18 957.194 1328.18 971.001Z"/>
<path d="M1311.69 896.659C1311.69 907.705 1303.04 916.659 1292.38 916.659C1281.72 916.659 1273.08 907.705 1273.08 896.659C1273.08 885.613 1281.72 876.659 1292.38 876.659C1303.04 876.659 1311.69 885.613 1311.69 896.659Z"/>
<path d="M1229.32 888.063C1229.32 899.109 1220.68 908.063 1210.01 908.063C1199.35 908.063 1190.71 899.109 1190.71 888.063C1190.71 877.018 1199.35 868.063 1210.01 868.063C1220.68 868.063 1229.32 877.018 1229.32 888.063Z"/>
<path d="M1440 893.063C1440 904.109 1431.36 913.064 1420.7 913.064C1410.03 913.064 1401.39 904.109 1401.39 893.063C1401.39 882.018 1410.03 873.063 1420.7 873.063C1431.36 873.063 1440 882.018 1440 893.063Z"/>
<path d="M1047.66 906.659C1047.66 917.705 1039.02 926.659 1028.35 926.659C1017.69 926.659 1009.05 917.705 1009.05 906.659C1009.05 895.613 1017.69 886.659 1028.35 886.659C1039.02 886.659 1047.66 895.613 1047.66 906.659Z"/>
<path d="M1082.63 986.001C1082.63 997.046 1073.99 1006 1063.33 1006C1052.67 1006 1044.02 997.046 1044.02 986.001C1044.02 974.955 1052.67 966 1063.33 966C1073.99 966 1082.63 974.955 1082.63 986.001Z"/>
<path d="M862.671 883.809C862.671 894.855 854.028 903.809 843.366 903.809C832.704 903.809 824.061 894.855 824.061 883.809C824.061 872.763 832.704 863.809 843.366 863.809C854.028 863.809 862.671 872.763 862.671 883.809Z"/>
<path d="M857.499 963.809C857.499 974.855 848.856 983.809 838.194 983.809C827.532 983.809 818.889 974.855 818.889 963.809C818.889 952.763 827.532 943.809 838.194 943.809C848.856 943.809 857.499 952.763 857.499 963.809Z"/>
<path d="M756.799 883.809C756.799 894.855 748.156 903.809 737.495 903.809C726.833 903.809 718.19 894.855 718.19 883.809C718.19 872.763 726.833 863.809 737.495 863.809C748.156 863.809 756.799 872.763 756.799 883.809Z"/>
<path d="M554.693 881.659C554.693 892.705 546.05 901.659 535.388 901.659C524.727 901.659 516.083 892.705 516.083 881.659C516.083 870.613 524.727 861.659 535.388 861.659C546.05 861.659 554.693 870.613 554.693 881.659Z"/>
<path d="M425.752 958.809C425.752 969.855 417.109 978.809 406.447 978.809C395.786 978.809 387.143 969.855 387.143 958.809C387.143 947.764 395.786 938.809 406.447 938.809C417.109 938.809 425.752 947.764 425.752 958.809Z"/>
<path d="M334.666 901C334.666 912.046 326.023 921.001 315.361 921.001C304.699 921.001 296.056 912.046 296.056 901C296.056 889.955 304.699 881 315.361 881C326.023 881 334.666 889.955 334.666 901Z"/>
<path d="M149.934 856.659C149.934 867.705 141.291 876.659 130.629 876.659C119.967 876.659 111.324 867.705 111.324 856.659C111.324 845.613 119.967 836.659 130.629 836.659C141.291 836.659 149.934 845.613 149.934 856.659Z"/>
<path d="M330.596 813.809C330.596 822.093 324.113 828.809 316.117 828.809C308.121 828.809 301.638 822.093 301.638 813.809C301.638 805.525 308.121 798.809 316.117 798.809C324.113 798.809 330.596 805.525 330.596 813.809Z"/>
<path d="M452.329 833.809C452.329 842.093 445.847 848.809 437.851 848.809C429.854 848.809 423.372 842.093 423.372 833.809C423.372 825.525 429.854 818.809 437.851 818.809C445.847 818.809 452.329 825.525 452.329 833.809Z"/>
<path d="M640.133 878.809C640.133 887.093 633.651 893.809 625.655 893.809C617.658 893.809 611.176 887.093 611.176 878.809C611.176 870.525 617.658 863.809 625.655 863.809C633.651 863.809 640.133 870.525 640.133 878.809Z"/>
<path d="M677.746 828.809C677.746 837.093 671.263 843.809 663.267 843.809C655.271 843.809 648.788 837.093 648.788 828.809C648.788 820.525 655.271 813.809 663.267 813.809C671.263 813.809 677.746 820.525 677.746 828.809Z"/>
<path d="M747.147 968.809C747.147 977.094 740.665 983.809 732.668 983.809C724.672 983.809 718.19 977.094 718.19 968.809C718.19 960.525 724.672 953.809 732.668 953.809C740.665 953.809 747.147 960.525 747.147 968.809Z"/>
<path d="M950.339 886.659C950.339 894.943 943.857 901.659 935.86 901.659C927.864 901.659 921.382 894.943 921.382 886.659C921.382 878.375 927.864 871.659 935.86 871.659C943.857 871.659 950.339 878.375 950.339 886.659Z"/>
<path d="M997.604 833.809C997.604 842.093 991.122 848.809 983.125 848.809C975.129 848.809 968.647 842.093 968.647 833.809C968.647 825.525 975.129 818.809 983.125 818.809C991.122 818.809 997.604 825.525 997.604 833.809Z"/>
<path d="M1111.59 851.659C1111.59 859.943 1105.11 866.659 1097.11 866.659C1089.12 866.659 1082.63 859.943 1082.63 851.659C1082.63 843.375 1089.12 836.659 1097.11 836.659C1105.11 836.659 1111.59 843.375 1111.59 851.659Z"/>
<path d="M1017.96 973.809C1017.96 982.094 1011.48 988.809 1003.48 988.809C995.484 988.809 989.002 982.094 989.002 973.809C989.002 965.525 995.484 958.809 1003.48 958.809C1011.48 958.809 1017.96 965.525 1017.96 973.809Z"/>
<path d="M589.039 981.001C589.039 989.285 582.557 996.001 574.561 996.001C566.564 996.001 560.082 989.285 560.082 981.001C560.082 972.716 566.564 966 574.561 966C582.557 966 589.039 972.716 589.039 981.001Z"/>
<path d="M1193.78 861.659C1193.78 869.943 1187.3 876.659 1179.3 876.659C1171.31 876.659 1164.82 869.943 1164.82 861.659C1164.82 853.375 1171.31 846.659 1179.3 846.659C1187.3 846.659 1193.78 853.375 1193.78 861.659Z"/>
<path d="M1292.38 821.659C1292.38 829.943 1285.9 836.659 1277.9 836.659C1269.91 836.659 1263.42 829.943 1263.42 821.659C1263.42 813.375 1269.91 806.659 1277.9 806.659C1285.9 806.659 1292.38 813.375 1292.38 821.659Z"/>
<path d="M1399.36 868.809C1399.36 877.093 1392.87 883.809 1384.88 883.809C1376.88 883.809 1370.4 877.093 1370.4 868.809C1370.4 860.525 1376.88 853.809 1384.88 853.809C1392.87 853.809 1399.36 860.525 1399.36 868.809Z"/>
<path d="M1374.75 786.659C1374.75 792.182 1370.43 796.659 1365.1 796.659C1359.77 796.659 1355.44 792.182 1355.44 786.659C1355.44 781.136 1359.77 776.659 1365.1 776.659C1370.43 776.659 1374.75 781.136 1374.75 786.659Z"/>
<path d="M1277.9 773.809C1277.9 779.332 1273.58 783.809 1268.25 783.809C1262.92 783.809 1258.6 779.332 1258.6 773.809C1258.6 768.286 1262.92 763.809 1268.25 763.809C1273.58 763.809 1277.9 768.286 1277.9 773.809Z"/>
<path d="M1165.56 796.659C1165.56 802.182 1161.24 806.659 1155.91 806.659C1150.58 806.659 1146.26 802.182 1146.26 796.659C1146.26 791.136 1150.58 786.659 1155.91 786.659C1161.24 786.659 1165.56 791.136 1165.56 796.659Z"/>
<path d="M1049.77 808.809C1049.77 814.332 1045.45 818.809 1040.12 818.809C1034.79 818.809 1030.47 814.332 1030.47 808.809C1030.47 803.286 1034.79 798.809 1040.12 798.809C1045.45 798.809 1049.77 803.286 1049.77 808.809Z"/>
<path d="M881.976 806.659C881.976 812.182 877.654 816.659 872.323 816.659C866.992 816.659 862.671 812.182 862.671 806.659C862.671 801.136 866.992 796.659 872.323 796.659C877.654 796.659 881.976 801.136 881.976 806.659Z"/>
<path d="M780.93 821.659C780.93 827.182 776.609 831.659 771.278 831.659C765.947 831.659 761.626 827.182 761.626 821.659C761.626 816.136 765.947 811.659 771.278 811.659C776.609 811.659 780.93 816.136 780.93 821.659Z"/>
<path d="M687.398 891.659C687.398 897.182 683.077 901.659 677.746 901.659C672.415 901.659 668.093 897.182 668.093 891.659C668.093 886.136 672.415 881.659 677.746 881.659C683.077 881.659 687.398 886.136 687.398 891.659Z"/>
<path d="M616.63 816.659C616.63 822.182 612.308 826.659 606.978 826.659C601.647 826.659 597.325 822.182 597.325 816.659C597.325 811.136 601.647 806.659 606.978 806.659C612.308 806.659 616.63 811.136 616.63 816.659Z"/>
<path d="M516.083 788.809C516.083 794.332 511.762 798.809 506.431 798.809C501.1 798.809 496.779 794.332 496.779 788.809C496.779 783.286 501.1 778.809 506.431 778.809C511.762 778.809 516.083 783.286 516.083 788.809Z"/>
<path d="M380.349 796.659C380.349 802.182 376.028 806.659 370.697 806.659C365.366 806.659 361.044 802.182 361.044 796.659C361.044 791.136 365.366 786.659 370.697 786.659C376.028 786.659 380.349 791.136 380.349 796.659Z"/>
<path d="M220.333 788.809C220.333 794.332 216.011 798.809 210.68 798.809C205.349 798.809 201.028 794.332 201.028 788.809C201.028 783.286 205.349 778.809 210.68 778.809C216.011 778.809 220.333 783.286 220.333 788.809Z"/>
<path d="M344.318 702.61C344.318 705.372 342.158 707.61 339.492 707.61C336.827 707.61 334.666 705.372 334.666 702.61C334.666 699.849 336.827 697.61 339.492 697.61C342.158 697.61 344.318 699.849 344.318 702.61Z"/>
<path d="M447.503 724.81C447.503 727.571 445.342 729.81 442.677 729.81C440.012 729.81 437.851 727.571 437.851 724.81C437.851 722.049 440.012 719.81 442.677 719.81C445.342 719.81 447.503 722.049 447.503 724.81Z"/>
<path d="M461.982 783.809C461.982 786.57 459.821 788.809 457.156 788.809C454.49 788.809 452.329 786.57 452.329 783.809C452.329 781.048 454.49 778.809 457.156 778.809C459.821 778.809 461.982 781.048 461.982 783.809Z"/>
<path d="M606.978 729.81C606.978 732.571 604.817 734.81 602.151 734.81C599.486 734.81 597.325 732.571 597.325 729.81C597.325 727.049 599.486 724.81 602.151 724.81C604.817 724.81 606.978 727.049 606.978 729.81Z"/>
<path d="M718.19 788.809C718.19 791.57 716.029 793.809 713.363 793.809C710.698 793.809 708.537 791.57 708.537 788.809C708.537 786.048 710.698 783.809 713.363 783.809C716.029 783.809 718.19 786.048 718.19 788.809Z"/>
<path d="M843.366 702.61C843.366 705.372 841.205 707.61 838.54 707.61C835.874 707.61 833.713 705.372 833.713 702.61C833.713 699.849 835.874 697.61 838.54 697.61C841.205 697.61 843.366 699.849 843.366 702.61Z"/>
<path d="M950.492 801.659C950.492 804.421 948.331 806.659 945.666 806.659C943 806.659 940.839 804.421 940.839 801.659C940.839 798.898 943 796.659 945.666 796.659C948.331 796.659 950.492 798.898 950.492 801.659Z"/>
<path d="M1047.66 714.81C1047.66 717.571 1045.5 719.81 1042.83 719.81C1040.17 719.81 1038.01 717.571 1038.01 714.81C1038.01 712.049 1040.17 709.81 1042.83 709.81C1045.5 709.81 1047.66 712.049 1047.66 714.81Z"/>
<path d="M1184.13 658.727C1184.13 661.488 1181.97 663.727 1179.3 663.727C1176.64 663.727 1174.48 661.488 1174.48 658.727C1174.48 655.966 1176.64 653.727 1179.3 653.727C1181.97 653.727 1184.13 655.966 1184.13 658.727Z"/>
<path d="M1227.57 734.81C1227.57 737.571 1225.4 739.81 1222.74 739.81C1220.07 739.81 1217.91 737.571 1217.91 734.81C1217.91 732.049 1220.07 729.81 1222.74 729.81C1225.4 729.81 1227.57 732.049 1227.57 734.81Z"/>
<path d="M1365.57 683.238C1365.57 684.618 1364.49 685.738 1363.16 685.738C1361.83 685.738 1360.75 684.618 1360.75 683.238C1360.75 681.857 1361.83 680.738 1363.16 680.738C1364.49 680.738 1365.57 681.857 1365.57 683.238Z"/>
<path d="M1287.32 606.162C1287.32 607.543 1286.24 608.662 1284.91 608.662C1283.57 608.662 1282.49 607.543 1282.49 606.162C1282.49 604.782 1283.57 603.662 1284.91 603.662C1286.24 603.662 1287.32 604.782 1287.32 606.162Z"/>
<path d="M1146.26 560.864C1146.26 562.244 1145.18 563.364 1143.85 563.364C1142.51 563.364 1141.43 562.244 1141.43 560.864C1141.43 559.483 1142.51 558.364 1143.85 558.364C1145.18 558.364 1146.26 559.483 1146.26 560.864Z"/>
<path d="M116.151 705.11C116.151 706.491 115.07 707.61 113.737 707.61C112.405 707.61 111.324 706.491 111.324 705.11C111.324 703.73 112.405 702.61 113.737 702.61C115.07 702.61 116.151 703.73 116.151 705.11Z"/>
<path d="M287.16 601.162C287.16 602.543 286.079 603.662 284.747 603.662C283.414 603.662 282.334 602.543 282.334 601.162C282.334 599.782 283.414 598.662 284.747 598.662C286.079 598.662 287.16 599.782 287.16 601.162Z"/>
<path d="M1415.93 52.7871C1415.93 38.98 1427.12 27.7871 1440.93 27.7871C1454.73 27.7871 1465.93 38.98 1465.93 52.7871C1465.93 66.5943 1454.73 77.7871 1440.93 77.7871C1427.12 77.7871 1415.93 66.5943 1415.93 52.7871Z"/>
<path d="M1212.66 96.3414C1212.66 82.5342 1223.85 71.3413 1237.66 71.3413C1251.47 71.3413 1262.66 82.5342 1262.66 96.3414C1262.66 110.148 1251.47 121.341 1237.66 121.341C1223.85 121.341 1212.66 110.148 1212.66 96.3414Z"/>
<path d="M1332.99 82C1332.99 68.1929 1344.19 57 1357.99 57C1371.8 57 1382.99 68.1929 1382.99 82C1382.99 95.8072 1371.8 107 1357.99 107C1344.19 107 1332.99 95.8072 1332.99 82Z"/>
<path d="M1282.99 45.5957C1282.99 31.7886 1294.19 20.5957 1307.99 20.5957C1321.8 20.5957 1332.99 31.7886 1332.99 45.5957C1332.99 59.4029 1321.8 70.5957 1307.99 70.5957C1294.19 70.5957 1282.99 59.4029 1282.99 45.5957Z"/>
<path d="M1064.73 40.5957C1064.73 26.7886 1075.92 15.5957 1089.73 15.5957C1103.53 15.5957 1114.73 26.7886 1114.73 40.5957C1114.73 54.4029 1103.53 65.5957 1089.73 65.5957C1075.92 65.5957 1064.73 54.4029 1064.73 40.5957Z"/>
<path d="M1208.76 25.5957C1208.76 11.7886 1219.95 0.595703 1233.76 0.595703C1247.57 0.595703 1258.76 11.7886 1258.76 25.5957C1258.76 39.4028 1247.57 50.5957 1233.76 50.5957C1219.95 50.5957 1208.76 39.4028 1208.76 25.5957Z"/>
<path d="M1012.31 119.191C1012.31 105.384 1023.5 94.1915 1037.31 94.1915C1051.12 94.1915 1062.31 105.384 1062.31 119.191C1062.31 132.999 1051.12 144.191 1037.31 144.191C1023.5 144.191 1012.31 132.999 1012.31 119.191Z"/>
<path d="M916.259 42C916.259 28.1929 927.452 17 941.259 17C955.066 17 966.259 28.1929 966.259 42C966.259 55.8071 955.066 67 941.259 67C927.452 67 916.259 55.8071 916.259 42Z"/>
<path d="M783.325 45.5957C783.325 31.7886 794.518 20.5957 808.325 20.5957C822.132 20.5957 833.325 31.7886 833.325 45.5957C833.325 59.4029 822.132 70.5957 808.325 70.5957C794.518 70.5957 783.325 59.4029 783.325 45.5957Z"/>
<path d="M864.108 75.5957C864.108 61.7886 875.301 50.5957 889.108 50.5957C902.916 50.5957 914.108 61.7886 914.108 75.5957C914.108 89.4028 902.916 100.596 889.108 100.596C875.301 100.596 864.108 89.4028 864.108 75.5957Z"/>
<path d="M645.842 70.5957C645.842 56.7886 657.035 45.5957 670.842 45.5957C684.649 45.5957 695.842 56.7886 695.842 70.5957C695.842 84.4028 684.649 95.5958 670.842 95.5958C657.035 95.5958 645.842 84.4028 645.842 70.5957Z"/>
<path d="M481.208 56.3413C481.208 42.5342 492.401 31.3413 506.208 31.3413C520.015 31.3413 531.208 42.5342 531.208 56.3413C531.208 70.1485 520.015 81.3413 506.208 81.3413C492.401 81.3413 481.208 70.1485 481.208 56.3413Z"/>
<path d="M268.391 69.1914C268.391 55.3843 279.583 44.1914 293.391 44.1914C307.198 44.1914 318.391 55.3843 318.391 69.1914C318.391 82.9985 307.198 94.1915 293.391 94.1915C279.583 94.1915 268.391 82.9985 268.391 69.1914Z"/>
<path d="M244.49 27.7871C244.49 13.98 255.683 2.78712 269.49 2.78712C283.297 2.78712 294.49 13.98 294.49 27.7871C294.49 41.5942 283.297 52.7871 269.49 52.7871C255.683 52.7871 244.49 41.5942 244.49 27.7871Z"/>
<path d="M89.9238 37C89.9238 23.1929 101.117 12 114.924 12C128.731 12 139.924 23.1929 139.924 37C139.924 50.8071 128.731 62 114.924 62C101.117 62 89.9238 50.8071 89.9238 37Z"/>
<path d="M107.007 111.341C107.007 100.296 115.961 91.3414 127.007 91.3414C138.053 91.3414 147.007 100.296 147.007 111.341C147.007 122.387 138.053 131.341 127.007 131.341C115.961 131.341 107.007 122.387 107.007 111.341Z"/>
<path d="M192.34 119.937C192.34 108.891 201.294 99.9371 212.34 99.9371C223.386 99.9371 232.34 108.891 232.34 119.937C232.34 130.983 223.386 139.937 212.34 139.937C201.294 139.937 192.34 130.983 192.34 119.937Z"/>
<path d="M-25.9268 114.937C-25.9268 103.891 -16.9725 94.9371 -5.92676 94.9371C5.11894 94.9371 14.0732 103.891 14.0732 114.937C14.0732 125.983 5.11894 134.937 -5.92676 134.937C-16.9725 134.937 -25.9268 125.983 -25.9268 114.937Z"/>
<path d="M380.541 101.341C380.541 90.2957 389.495 81.3413 400.541 81.3413C411.587 81.3413 420.541 90.2957 420.541 101.341C420.541 112.387 411.587 121.341 400.541 121.341C389.495 121.341 380.541 112.387 380.541 101.341Z"/>
<path d="M344.308 22C344.308 10.9543 353.262 2 364.308 2C375.353 2 384.308 10.9543 384.308 22C384.308 33.0457 375.353 42 364.308 42C353.262 42 344.308 33.0457 344.308 22Z"/>
<path d="M572.191 124.191C572.191 113.146 581.146 104.191 592.191 104.191C603.237 104.191 612.191 113.146 612.191 124.191C612.191 135.237 603.237 144.191 592.191 144.191C581.146 144.191 572.191 135.237 572.191 124.191Z"/>
<path d="M577.55 44.1914C577.55 33.1457 586.504 24.1914 597.55 24.1914C608.596 24.1914 617.55 33.1457 617.55 44.1914C617.55 55.2371 608.596 64.1914 597.55 64.1914C586.504 64.1914 577.55 55.2371 577.55 44.1914Z"/>
<path d="M681.875 124.191C681.875 113.146 690.829 104.191 701.875 104.191C712.921 104.191 721.875 113.146 721.875 124.191C721.875 135.237 712.921 144.191 701.875 144.191C690.829 144.191 681.875 135.237 681.875 124.191Z"/>
<path d="M891.259 126.341C891.259 115.296 900.213 106.341 911.259 106.341C922.305 106.341 931.259 115.296 931.259 126.341C931.259 137.387 922.305 146.341 911.259 146.341C900.213 146.341 891.259 137.387 891.259 126.341Z"/>
<path d="M1024.84 49.1914C1024.84 38.1457 1033.8 29.1914 1044.84 29.1914C1055.89 29.1914 1064.84 38.1457 1064.84 49.1914C1064.84 60.2371 1055.89 69.1914 1044.84 69.1914C1033.8 69.1914 1024.84 60.2371 1024.84 49.1914Z"/>
<path d="M1119.21 107C1119.21 95.9544 1128.16 87.0001 1139.21 87.0001C1150.25 87.0001 1159.21 95.9544 1159.21 107C1159.21 118.046 1150.25 127 1139.21 127C1128.16 127 1119.21 118.046 1119.21 107Z"/>
<path d="M1310.59 151.341C1310.59 140.296 1319.55 131.341 1330.59 131.341C1341.64 131.341 1350.59 140.296 1350.59 151.341C1350.59 162.387 1341.64 171.341 1330.59 171.341C1319.55 171.341 1310.59 162.387 1310.59 151.341Z"/>
<path d="M1123.43 194.191C1123.43 185.907 1130.14 179.191 1138.43 179.191C1146.71 179.191 1153.43 185.907 1153.43 194.191C1153.43 202.476 1146.71 209.192 1138.43 209.192C1130.14 209.192 1123.43 202.476 1123.43 194.191Z"/>
<path d="M997.309 174.191C997.309 165.907 1004.02 159.191 1012.31 159.191C1020.59 159.191 1027.31 165.907 1027.31 174.191C1027.31 182.476 1020.59 189.192 1012.31 189.192C1004.02 189.192 997.309 182.476 997.309 174.191Z"/>
<path d="M802.742 129.191C802.742 120.907 809.458 114.191 817.742 114.191C826.026 114.191 832.742 120.907 832.742 129.191C832.742 137.476 826.026 144.191 817.742 144.191C809.458 144.191 802.742 137.476 802.742 129.191Z"/>
<path d="M763.775 179.191C763.775 170.907 770.491 164.191 778.775 164.191C787.06 164.191 793.775 170.907 793.775 179.191C793.775 187.476 787.06 194.191 778.775 194.191C770.491 194.191 763.775 187.476 763.775 179.191Z"/>
<path d="M691.875 39.1914C691.875 30.9072 698.591 24.1914 706.875 24.1914C715.159 24.1914 721.875 30.9072 721.875 39.1914C721.875 47.4757 715.159 54.1914 706.875 54.1914C698.591 54.1914 691.875 47.4757 691.875 39.1914Z"/>
<path d="M481.366 121.341C481.366 113.057 488.082 106.341 496.366 106.341C504.651 106.341 511.366 113.057 511.366 121.341C511.366 129.626 504.651 136.341 496.366 136.341C488.082 136.341 481.366 129.626 481.366 121.341Z"/>
<path d="M432.399 174.191C432.399 165.907 439.115 159.191 447.399 159.191C455.684 159.191 462.399 165.907 462.399 174.191C462.399 182.476 455.684 189.192 447.399 189.192C439.115 189.192 432.399 182.476 432.399 174.191Z"/>
<path d="M314.308 156.341C314.308 148.057 321.023 141.341 329.308 141.341C337.592 141.341 344.308 148.057 344.308 156.341C344.308 164.626 337.592 171.341 329.308 171.341C321.023 171.341 314.308 164.626 314.308 156.341Z"/>
<path d="M411.312 34.1914C411.312 25.9071 418.027 19.1914 426.312 19.1914C434.596 19.1914 441.312 25.9071 441.312 34.1914C441.312 42.4757 434.596 49.1914 426.312 49.1914C418.027 49.1914 411.312 42.4757 411.312 34.1914Z"/>
<path d="M855.676 27C855.676 18.7157 862.391 12 870.676 12C878.96 12 885.676 18.7157 885.676 27C885.676 35.2843 878.96 42 870.676 42C862.391 42 855.676 35.2843 855.676 27Z"/>
<path d="M229.157 146.341C229.157 138.057 235.873 131.341 244.157 131.341C252.441 131.341 259.157 138.057 259.157 146.341C259.157 154.626 252.441 161.341 244.157 161.341C235.873 161.341 229.157 154.626 229.157 146.341Z"/>
<path d="M127.007 186.341C127.007 178.057 133.723 171.341 142.007 171.341C150.291 171.341 157.007 178.057 157.007 186.341C157.007 194.626 150.291 201.341 142.007 201.341C133.723 201.341 127.007 194.626 127.007 186.341Z"/>
<path d="M16.1816 139.191C16.1816 130.907 22.8974 124.191 31.1816 124.191C39.4659 124.191 46.1816 130.907 46.1816 139.191C46.1816 147.476 39.4659 154.191 31.1816 154.191C22.8974 154.191 16.1816 147.476 16.1816 139.191Z"/>
<path d="M41.6738 221.341C41.6738 215.819 46.151 211.341 51.6738 211.341C57.1967 211.341 61.6738 215.819 61.6738 221.341C61.6738 226.864 57.1967 231.341 51.6738 231.341C46.151 231.341 41.6738 226.864 41.6738 221.341Z"/>
<path d="M142.007 234.192C142.007 228.669 146.484 224.192 152.007 224.192C157.53 224.192 162.007 228.669 162.007 234.192C162.007 239.714 157.53 244.192 152.007 244.192C146.484 244.192 142.007 239.714 142.007 234.192Z"/>
<path d="M258.391 211.341C258.391 205.819 262.868 201.341 268.391 201.341C273.913 201.341 278.391 205.819 278.391 211.341C278.391 216.864 273.913 221.341 268.391 221.341C262.868 221.341 258.391 216.864 258.391 211.341Z"/>
<path d="M378.354 199.192C378.354 193.669 382.831 189.192 388.354 189.192C393.876 189.192 398.354 193.669 398.354 199.192C398.354 204.714 393.876 209.192 388.354 209.192C382.831 209.192 378.354 204.714 378.354 199.192Z"/>
<path d="M552.191 201.341C552.191 195.819 556.669 191.341 562.191 191.341C567.714 191.341 572.191 195.819 572.191 201.341C572.191 206.864 567.714 211.341 562.191 211.341C556.669 211.341 552.191 206.864 552.191 201.341Z"/>
<path d="M656.875 186.341C656.875 180.819 661.352 176.341 666.875 176.341C672.398 176.341 676.875 180.819 676.875 186.341C676.875 191.864 672.398 196.341 666.875 196.341C661.352 196.341 656.875 191.864 656.875 186.341Z"/>
<path d="M753.775 116.341C753.775 110.819 758.253 106.341 763.775 106.341C769.298 106.341 773.775 110.819 773.775 116.341C773.775 121.864 769.298 126.341 763.775 126.341C758.253 126.341 753.775 121.864 753.775 116.341Z"/>
<path d="M827.092 191.341C827.092 185.819 831.569 181.341 837.092 181.341C842.615 181.341 847.092 185.819 847.092 191.341C847.092 196.864 842.615 201.341 837.092 201.341C831.569 201.341 827.092 196.864 827.092 191.341Z"/>
<path d="M931.259 219.192C931.259 213.669 935.736 209.192 941.259 209.192C946.782 209.192 951.259 213.669 951.259 219.192C951.259 224.714 946.782 229.192 941.259 229.192C935.736 229.192 931.259 224.714 931.259 219.192Z"/>
<path d="M1071.88 211.341C1071.88 205.819 1076.36 201.341 1081.88 201.341C1087.4 201.341 1091.88 205.819 1091.88 211.341C1091.88 216.864 1087.4 221.341 1081.88 221.341C1076.36 221.341 1071.88 216.864 1071.88 211.341Z"/>
<path d="M1237.66 219.192C1237.66 213.669 1242.14 209.192 1247.66 209.192C1253.18 209.192 1257.66 213.669 1257.66 219.192C1257.66 224.714 1253.18 229.192 1247.66 229.192C1242.14 229.192 1237.66 224.714 1237.66 219.192Z"/>
<path d="M1109.21 305.39C1109.21 302.629 1111.45 300.39 1114.21 300.39C1116.97 300.39 1119.21 302.629 1119.21 305.39C1119.21 308.152 1116.97 310.39 1114.21 310.39C1111.45 310.39 1109.21 308.152 1109.21 305.39Z"/>
<path d="M1002.31 283.191C1002.31 280.429 1004.55 278.191 1007.31 278.191C1010.07 278.191 1012.31 280.429 1012.31 283.191C1012.31 285.952 1010.07 288.191 1007.31 288.191C1004.55 288.191 1002.31 285.952 1002.31 283.191Z"/>
<path d="M987.309 224.192C987.309 221.43 989.547 219.192 992.309 219.192C995.07 219.192 997.309 221.43 997.309 224.192C997.309 226.953 995.07 229.192 992.309 229.192C989.547 229.192 987.309 226.953 987.309 224.192Z"/>
<path d="M837.092 278.191C837.092 275.429 839.33 273.191 842.092 273.191C844.853 273.191 847.092 275.429 847.092 278.191C847.092 280.952 844.853 283.191 842.092 283.191C839.33 283.191 837.092 280.952 837.092 278.191Z"/>
<path d="M721.875 219.192C721.875 216.43 724.114 214.192 726.875 214.192C729.636 214.192 731.875 216.43 731.875 219.192C731.875 221.953 729.636 224.192 726.875 224.192C724.114 224.192 721.875 221.953 721.875 219.192Z"/>
<path d="M592.191 305.39C592.191 302.629 594.43 300.39 597.191 300.39C599.953 300.39 602.191 302.629 602.191 305.39C602.191 308.152 599.953 310.39 597.191 310.39C594.43 310.39 592.191 308.152 592.191 305.39Z"/>
<path d="M481.208 206.341C481.208 203.58 483.447 201.341 486.208 201.341C488.969 201.341 491.208 203.58 491.208 206.341C491.208 209.103 488.969 211.341 486.208 211.341C483.447 211.341 481.208 209.103 481.208 206.341Z"/>
<path d="M380.541 293.191C380.541 290.429 382.78 288.191 385.541 288.191C388.302 288.191 390.541 290.429 390.541 293.191C390.541 295.952 388.302 298.191 385.541 298.191C382.78 298.191 380.541 295.952 380.541 293.191Z"/>
<path d="M239.157 349.274C239.157 346.512 241.396 344.274 244.157 344.274C246.919 344.274 249.157 346.512 249.157 349.274C249.157 352.035 246.919 354.274 244.157 354.274C241.396 354.274 239.157 352.035 239.157 349.274Z"/>
<path d="M194.157 273.191C194.157 270.429 196.396 268.191 199.157 268.191C201.919 268.191 204.157 270.429 204.157 273.191C204.157 275.952 201.919 278.191 199.157 278.191C196.396 278.191 194.157 275.952 194.157 273.191Z"/>
<path d="M51.1816 324.763C51.1816 323.382 52.3009 322.263 53.6816 322.263C55.0624 322.263 56.1816 323.382 56.1816 324.763C56.1816 326.144 55.0624 327.263 53.6816 327.263C52.3009 327.263 51.1816 326.144 51.1816 324.763Z"/>
<path d="M132.253 401.838C132.253 400.457 133.372 399.338 134.753 399.338C136.134 399.338 137.253 400.457 137.253 401.838C137.253 403.219 136.134 404.338 134.753 404.338C133.372 404.338 132.253 403.219 132.253 401.838Z"/>
<path d="M278.391 447.137C278.391 445.756 279.51 444.637 280.891 444.637C282.271 444.637 283.391 445.756 283.391 447.137C283.391 448.518 282.271 449.637 280.891 449.637C279.51 449.637 278.391 448.518 278.391 447.137Z"/>
<path d="M1345.59 302.89C1345.59 301.51 1346.71 300.39 1348.09 300.39C1349.47 300.39 1350.59 301.51 1350.59 302.89C1350.59 304.271 1349.47 305.39 1348.09 305.39C1346.71 305.39 1345.59 304.271 1345.59 302.89Z"/>
<path d="M1168.43 406.838C1168.43 405.457 1169.55 404.338 1170.93 404.338C1172.31 404.338 1173.43 405.457 1173.43 406.838C1173.43 408.219 1172.31 409.338 1170.93 409.338C1169.55 409.338 1168.43 408.219 1168.43 406.838Z"/>
</mask>
<path d="M70.8986 1007.41C70.8986 993.857 81.4951 982.905 94.5297 982.905V981.905C80.9098 981.905 69.8986 993.339 69.8986 1007.41H70.8986ZM94.5297 982.905C107.564 982.905 118.161 993.857 118.161 1007.41H119.161C119.161 993.339 108.15 981.905 94.5297 981.905V982.905ZM411.147 987.405C411.147 973.857 421.743 962.905 434.778 962.905V961.905C421.158 961.905 410.147 973.339 410.147 987.405H411.147ZM434.778 962.905C447.812 962.905 458.409 973.857 458.409 987.405H459.409C459.409 973.339 448.398 961.905 434.778 961.905V962.905ZM674.932 1005.21C674.932 991.666 685.529 980.714 698.563 980.714V979.714C684.944 979.714 673.932 991.147 673.932 1005.21H674.932ZM698.563 980.714C711.598 980.714 722.194 991.666 722.194 1005.21H723.194C723.194 991.147 712.183 979.714 698.563 979.714V980.714ZM1213.59 988.809C1213.59 975.262 1224.18 964.309 1237.22 964.309V963.309C1223.6 963.309 1212.59 974.743 1212.59 988.809H1213.59ZM1237.22 964.309C1250.25 964.309 1260.85 975.262 1260.85 988.809H1261.85C1261.85 974.743 1250.84 963.309 1237.22 963.309V964.309ZM1341.9 985.214C1341.9 971.666 1352.5 960.714 1365.53 960.714V959.714C1351.91 959.714 1340.9 971.147 1340.9 985.214H1341.9ZM1365.53 960.714C1378.57 960.714 1389.16 971.666 1389.16 985.214H1390.16C1390.16 971.147 1379.15 959.714 1365.53 959.714V960.714ZM1392.49 0.595703C1392.49 14.1267 1381.52 25.0957 1367.99 25.0957V26.0957C1382.08 26.0957 1393.49 14.679 1393.49 0.595703H1392.49ZM1367.99 25.0957C1354.46 25.0957 1343.49 14.1267 1343.49 0.595703H1342.49C1342.49 14.679 1353.91 26.0957 1367.99 26.0957V25.0957ZM1039.99 20.5957C1039.99 34.1267 1029.02 45.0957 1015.49 45.0957V46.0957C1029.58 46.0957 1040.99 34.679 1040.99 20.5957H1039.99ZM1015.49 45.0957C1001.96 45.0957 990.992 34.1267 990.992 20.5957H989.992C989.992 34.679 1001.41 46.0957 1015.49 46.0957V45.0957ZM766.708 2.78712C766.708 16.3181 755.739 27.2871 742.208 27.2871V28.2871C756.291 28.2871 767.708 16.8704 767.708 2.78712H766.708ZM742.208 27.2871C728.677 27.2871 717.708 16.3181 717.708 2.78712H716.708C716.708 16.8704 728.125 28.2871 742.208 28.2871V27.2871ZM75.7236 22.7871C75.7236 36.3181 64.7546 47.2871 51.2236 47.2871V48.2871C65.3069 48.2871 76.7236 36.8704 76.7236 22.7871H75.7236ZM51.2236 47.2871C37.6927 47.2871 26.7236 36.3181 26.7236 22.7871H25.7236C25.7236 36.8704 37.1404 48.2871 51.2236 48.2871V47.2871ZM768.366 7.00002C768.366 15.0081 761.874 21.5 753.866 21.5V22.5C762.427 22.5 769.366 15.5604 769.366 7.00002H768.366ZM753.866 21.5C745.858 21.5 739.366 15.0081 739.366 7.00002H738.366C738.366 15.5604 745.306 22.5 753.866 22.5V21.5ZM47.2621 955.214C47.2621 968.502 36.873 979.214 24.1311 979.214V981.214C38.0436 981.214 49.2621 969.54 49.2621 955.214H47.2621ZM24.1311 979.214C11.3892 979.214 1 968.502 1 955.214H-1C-1 969.54 10.2185 981.214 24.1311 981.214V979.214ZM1 955.214C1 941.925 11.3892 931.213 24.1311 931.213V929.213C10.2185 929.213 -1 940.888 -1 955.214H1ZM24.1311 931.213C36.8729 931.213 47.2621 941.925 47.2621 955.214H49.2621C49.2621 940.888 38.0437 929.213 24.1311 929.213V931.213ZM243.464 911.659C243.464 924.948 233.075 935.659 220.333 935.659V937.659C234.245 937.659 245.464 925.985 245.464 911.659H243.464ZM220.333 935.659C207.591 935.659 197.202 924.948 197.202 911.659H195.202C195.202 925.985 206.42 937.659 220.333 937.659V935.659ZM197.202 911.659C197.202 898.371 207.591 887.659 220.333 887.659V885.659C206.42 885.659 195.202 897.333 195.202 911.659H197.202ZM220.333 887.659C233.075 887.659 243.464 898.371 243.464 911.659H245.464C245.464 897.333 234.245 885.659 220.333 885.659V887.659ZM127.313 926.001C127.313 939.289 116.924 950.001 104.182 950.001V952.001C118.095 952.001 129.313 940.326 129.313 926.001H127.313ZM104.182 950.001C91.4402 950.001 81.0511 939.289 81.0511 926.001H79.0511C79.0511 940.326 90.2696 952.001 104.182 952.001V950.001ZM81.0511 926.001C81.0511 912.712 91.4402 902 104.182 902V900C90.2696 900 79.0511 911.675 79.0511 926.001H81.0511ZM104.182 902C116.924 902 127.313 912.712 127.313 926.001H129.313C129.313 911.675 118.095 900 104.182 900V902ZM175.575 962.405C175.575 975.693 165.186 986.405 152.444 986.405V988.405C166.357 988.405 177.575 976.731 177.575 962.405H175.575ZM152.444 986.405C139.702 986.405 129.313 975.693 129.313 962.405H127.313C127.313 976.731 138.532 988.405 152.444 988.405V986.405ZM129.313 962.405C129.313 949.116 139.702 938.405 152.444 938.405V936.405C138.532 936.405 127.313 948.079 127.313 962.405H129.313ZM152.444 938.405C165.186 938.405 175.575 949.116 175.575 962.405H177.575C177.575 948.079 166.357 936.405 152.444 936.405V938.405ZM386.256 967.405C386.256 980.693 375.866 991.405 363.125 991.405V993.405C377.037 993.405 388.256 981.731 388.256 967.405H386.256ZM363.125 991.405C350.383 991.405 339.993 980.693 339.993 967.405H337.993C337.993 981.731 349.212 993.405 363.125 993.405V991.405ZM339.993 967.405C339.993 954.116 350.383 943.405 363.125 943.405V941.405C349.212 941.405 337.993 953.079 337.993 967.405H339.993ZM363.125 943.405C375.866 943.405 386.256 954.116 386.256 967.405H388.256C388.256 953.079 377.037 941.405 363.125 941.405V943.405ZM247.229 982.405C247.229 995.693 236.839 1006.41 224.098 1006.41V1008.41C238.01 1008.41 249.229 996.731 249.229 982.405H247.229ZM224.098 1006.41C211.356 1006.41 200.966 995.693 200.966 982.405H198.966C198.966 996.731 210.185 1008.41 224.098 1008.41V1006.41ZM200.966 982.405C200.966 969.117 211.356 958.405 224.098 958.405V956.405C210.185 956.405 198.966 968.079 198.966 982.405H200.966ZM224.098 958.405C236.839 958.405 247.229 969.117 247.229 982.405H249.229C249.229 968.079 238.01 956.405 224.098 956.405V958.405ZM436.851 888.809C436.851 902.098 426.462 912.809 413.72 912.809V914.809C427.632 914.809 438.851 903.135 438.851 888.809H436.851ZM413.72 912.809C400.978 912.809 390.589 902.098 390.589 888.809H388.589C388.589 903.135 399.807 914.809 413.72 914.809V912.809ZM390.589 888.809C390.589 875.521 400.978 864.809 413.72 864.809V862.809C399.807 862.809 388.589 874.483 388.589 888.809H390.589ZM413.72 864.809C426.462 864.809 436.851 875.521 436.851 888.809H438.851C438.851 874.483 427.632 862.809 413.72 862.809V864.809ZM529.562 966C529.562 979.289 519.173 990.001 506.431 990.001V992.001C520.344 992.001 531.562 980.326 531.562 966H529.562ZM506.431 990.001C493.689 990.001 483.3 979.289 483.3 966H481.3C481.3 980.326 492.519 992.001 506.431 992.001V990.001ZM483.3 966C483.3 952.712 493.689 942.001 506.431 942.001V940.001C492.519 940.001 481.3 951.675 481.3 966H483.3ZM506.431 942.001C519.173 942.001 529.562 952.712 529.562 966H531.562C531.562 951.675 520.344 940.001 506.431 940.001V942.001ZM657.875 962.405C657.875 975.693 647.486 986.405 634.744 986.405V988.405C648.657 988.405 659.875 976.731 659.875 962.405H657.875ZM634.744 986.405C622.002 986.405 611.613 975.693 611.613 962.405H609.613C609.613 976.731 620.832 988.405 634.744 988.405V986.405ZM611.613 962.405C611.613 949.116 622.002 938.405 634.744 938.405V936.405C620.832 936.405 609.613 948.079 609.613 962.405H611.613ZM634.744 938.405C647.486 938.405 657.875 949.116 657.875 962.405H659.875C659.875 948.079 648.657 936.405 634.744 936.405V938.405ZM579.9 932.405C579.9 945.693 569.511 956.405 556.769 956.405V958.405C570.681 958.405 581.9 946.731 581.9 932.405H579.9ZM556.769 956.405C544.027 956.405 533.638 945.693 533.638 932.405H531.638C531.638 946.731 542.856 958.405 556.769 958.405V956.405ZM533.638 932.405C533.638 919.116 544.027 908.405 556.769 908.405V906.405C542.856 906.405 531.638 918.079 531.638 932.405H533.638ZM556.769 908.405C569.511 908.405 579.9 919.116 579.9 932.405H581.9C581.9 918.079 570.681 906.405 556.769 906.405V908.405ZM790.58 937.405C790.58 950.693 780.191 961.405 767.449 961.405V963.405C781.362 963.405 792.58 951.731 792.58 937.405H790.58ZM767.449 961.405C754.707 961.405 744.318 950.693 744.318 937.405H742.318C742.318 951.731 753.537 963.405 767.449 963.405V961.405ZM744.318 937.405C744.318 924.116 754.707 913.405 767.449 913.405V911.405C753.537 911.405 742.318 923.079 742.318 937.405H744.318ZM767.449 913.405C780.191 913.405 790.58 924.116 790.58 937.405H792.58C792.58 923.079 781.362 911.405 767.449 911.405V913.405ZM949.492 951.659C949.492 964.948 939.103 975.659 926.361 975.659V977.659C940.273 977.659 951.492 965.985 951.492 951.659H949.492ZM926.361 975.659C913.619 975.659 903.23 964.948 903.23 951.659H901.23C901.23 965.985 912.448 977.659 926.361 977.659V975.659ZM903.23 951.659C903.23 938.371 913.619 927.659 926.361 927.659V925.659C912.448 925.659 901.23 937.334 901.23 951.659H903.23ZM926.361 927.659C939.103 927.659 949.492 938.371 949.492 951.659H951.492C951.492 937.334 940.273 925.659 926.361 925.659V927.659ZM1154.91 938.809C1154.91 952.098 1144.52 962.809 1131.78 962.809V964.809C1145.69 964.809 1156.91 953.135 1156.91 938.809H1154.91ZM1131.78 962.809C1119.04 962.809 1108.65 952.098 1108.65 938.809H1106.65C1106.65 953.135 1117.87 964.809 1131.78 964.809V962.809ZM1108.65 938.809C1108.65 925.521 1119.04 914.809 1131.78 914.809V912.809C1117.87 912.809 1106.65 924.483 1106.65 938.809H1108.65ZM1131.78 914.809C1144.52 914.809 1154.91 925.521 1154.91 938.809H1156.91C1156.91 924.483 1145.69 912.809 1131.78 912.809V914.809ZM1177.98 980.214C1177.98 993.502 1167.59 1004.21 1154.85 1004.21V1006.21C1168.76 1006.21 1179.98 994.539 1179.98 980.214H1177.98ZM1154.85 1004.21C1142.11 1004.21 1131.72 993.502 1131.72 980.214H1129.72C1129.72 994.539 1140.94 1006.21 1154.85 1006.21V1004.21ZM1131.72 980.214C1131.72 966.925 1142.11 956.214 1154.85 956.214V954.214C1140.94 954.214 1129.72 965.888 1129.72 980.214H1131.72ZM1154.85 956.214C1167.59 956.214 1177.98 966.925 1177.98 980.214H1179.98C1179.98 965.888 1168.76 954.214 1154.85 954.214V956.214ZM1327.18 971.001C1327.18 984.289 1316.79 995.001 1304.05 995.001V997.001C1317.96 997.001 1329.18 985.327 1329.18 971.001H1327.18ZM1304.05 995.001C1291.3 995.001 1280.91 984.289 1280.91 971.001H1278.91C1278.91 985.327 1290.13 997.001 1304.05 997.001V995.001ZM1280.91 971.001C1280.91 957.712 1291.3 947.001 1304.05 947.001V945.001C1290.13 945.001 1278.91 956.675 1278.91 971.001H1280.91ZM1304.05 947.001C1316.79 947.001 1327.18 957.712 1327.18 971.001H1329.18C1329.18 956.675 1317.96 945.001 1304.05 945.001V947.001ZM1310.69 896.659C1310.69 907.186 1302.46 915.659 1292.38 915.659V917.659C1303.63 917.659 1312.69 908.224 1312.69 896.659H1310.69ZM1292.38 915.659C1282.31 915.659 1274.08 907.186 1274.08 896.659H1272.08C1272.08 908.224 1281.13 917.659 1292.38 917.659V915.659ZM1274.08 896.659C1274.08 886.132 1282.31 877.659 1292.38 877.659V875.659C1281.13 875.659 1272.08 885.095 1272.08 896.659H1274.08ZM1292.38 877.659C1302.46 877.659 1310.69 886.132 1310.69 896.659H1312.69C1312.69 885.095 1303.63 875.659 1292.38 875.659V877.659ZM1228.32 888.063C1228.32 898.591 1220.09 907.063 1210.01 907.063V909.063C1221.26 909.063 1230.32 899.628 1230.32 888.063H1228.32ZM1210.01 907.063C1199.94 907.063 1191.71 898.591 1191.71 888.063H1189.71C1189.71 899.628 1198.77 909.063 1210.01 909.063V907.063ZM1191.71 888.063C1191.71 877.536 1199.94 869.063 1210.01 869.063V867.063C1198.77 867.063 1189.71 876.499 1189.71 888.063H1191.71ZM1210.01 869.063C1220.09 869.063 1228.32 877.536 1228.32 888.063H1230.32C1230.32 876.499 1221.26 867.063 1210.01 867.063V869.063ZM1439 893.063C1439 903.591 1430.77 912.064 1420.7 912.064V914.064C1431.94 914.064 1441 904.628 1441 893.063H1439ZM1420.7 912.064C1410.62 912.064 1402.39 903.591 1402.39 893.063H1400.39C1400.39 904.628 1409.45 914.064 1420.7 914.064V912.064ZM1402.39 893.063C1402.39 882.536 1410.62 874.063 1420.7 874.063V872.063C1409.45 872.063 1400.39 881.499 1400.39 893.063H1402.39ZM1420.7 874.063C1430.77 874.063 1439 882.536 1439 893.063H1441C1441 881.499 1431.94 872.063 1420.7 872.063V874.063ZM1046.66 906.659C1046.66 917.186 1038.43 925.659 1028.35 925.659V927.659C1039.6 927.659 1048.66 918.224 1048.66 906.659H1046.66ZM1028.35 925.659C1018.28 925.659 1010.05 917.186 1010.05 906.659H1008.05C1008.05 918.224 1017.11 927.659 1028.35 927.659V925.659ZM1010.05 906.659C1010.05 896.132 1018.28 887.659 1028.35 887.659V885.659C1017.11 885.659 1008.05 895.095 1008.05 906.659H1010.05ZM1028.35 887.659C1038.43 887.659 1046.66 896.132 1046.66 906.659H1048.66C1048.66 895.095 1039.6 885.659 1028.35 885.659V887.659ZM1081.63 986.001C1081.63 996.528 1073.41 1005 1063.33 1005V1007C1074.58 1007 1083.63 997.565 1083.63 986.001H1081.63ZM1063.33 1005C1053.25 1005 1045.02 996.528 1045.02 986.001H1043.02C1043.02 997.565 1052.08 1007 1063.33 1007V1005ZM1045.02 986.001C1045.02 975.474 1053.25 967 1063.33 967V965C1052.08 965 1043.02 974.436 1043.02 986.001H1045.02ZM1063.33 967C1073.41 967 1081.63 975.474 1081.63 986.001H1083.63C1083.63 974.436 1074.58 965 1063.33 965V967ZM861.671 883.809C861.671 894.336 853.442 902.809 843.366 902.809V904.809C854.613 904.809 863.671 895.373 863.671 883.809H861.671ZM843.366 902.809C833.289 902.809 825.061 894.336 825.061 883.809H823.061C823.061 895.373 832.119 904.809 843.366 904.809V902.809ZM825.061 883.809C825.061 873.282 833.289 864.809 843.366 864.809V862.809C832.119 862.809 823.061 872.245 823.061 883.809H825.061ZM843.366 864.809C853.442 864.809 861.671 873.282 861.671 883.809H863.671C863.671 872.245 854.613 862.809 843.366 862.809V864.809ZM856.499 963.809C856.499 974.336 848.27 982.809 838.194 982.809V984.809C849.441 984.809 858.499 975.374 858.499 963.809H856.499ZM838.194 982.809C828.117 982.809 819.889 974.336 819.889 963.809H817.889C817.889 975.374 826.947 984.809 838.194 984.809V982.809ZM819.889 963.809C819.889 953.282 828.117 944.809 838.194 944.809V942.809C826.947 942.809 817.889 952.245 817.889 963.809H819.889ZM838.194 944.809C848.27 944.809 856.499 953.282 856.499 963.809H858.499C858.499 952.245 849.441 942.809 838.194 942.809V944.809ZM755.799 883.809C755.799 894.336 747.571 902.809 737.495 902.809V904.809C748.742 904.809 757.799 895.373 757.799 883.809H755.799ZM737.495 902.809C727.418 902.809 719.19 894.336 719.19 883.809H717.19C717.19 895.373 726.247 904.809 737.495 904.809V902.809ZM719.19 883.809C719.19 873.282 727.418 864.809 737.495 864.809V862.809C726.247 862.809 717.19 872.245 717.19 883.809H719.19ZM737.495 864.809C747.571 864.809 755.799 873.282 755.799 883.809H757.799C757.799 872.245 748.742 862.809 737.495 862.809V864.809ZM553.693 881.659C553.693 892.186 545.465 900.659 535.388 900.659V902.659C546.635 902.659 555.693 893.224 555.693 881.659H553.693ZM535.388 900.659C525.312 900.659 517.083 892.186 517.083 881.659H515.083C515.083 893.224 524.141 902.659 535.388 902.659V900.659ZM517.083 881.659C517.083 871.132 525.312 862.659 535.388 862.659V860.659C524.141 860.659 515.083 870.095 515.083 881.659H517.083ZM535.388 862.659C545.465 862.659 553.693 871.132 553.693 881.659H555.693C555.693 870.095 546.635 860.659 535.388 860.659V862.659ZM424.752 958.809C424.752 969.336 416.524 977.809 406.447 977.809V979.809C417.694 979.809 426.752 970.374 426.752 958.809H424.752ZM406.447 977.809C396.371 977.809 388.143 969.336 388.143 958.809H386.143C386.143 970.374 395.2 979.809 406.447 979.809V977.809ZM388.143 958.809C388.143 948.282 396.371 939.809 406.447 939.809V937.809C395.2 937.809 386.143 947.245 386.143 958.809H388.143ZM406.447 939.809C416.524 939.809 424.752 948.282 424.752 958.809H426.752C426.752 947.245 417.694 937.809 406.447 937.809V939.809ZM333.666 901C333.666 911.528 325.438 920.001 315.361 920.001V922.001C326.608 922.001 335.666 912.565 335.666 901H333.666ZM315.361 920.001C305.285 920.001 297.056 911.528 297.056 901H295.056C295.056 912.565 304.114 922.001 315.361 922.001V920.001ZM297.056 901C297.056 890.473 305.285 882 315.361 882V880C304.114 880 295.056 889.436 295.056 901H297.056ZM315.361 882C325.438 882 333.666 890.473 333.666 901H335.666C335.666 889.436 326.608 880 315.361 880V882ZM148.934 856.659C148.934 867.186 140.706 875.659 130.629 875.659V877.659C141.876 877.659 150.934 868.224 150.934 856.659H148.934ZM130.629 875.659C120.553 875.659 112.324 867.186 112.324 856.659H110.324C110.324 868.224 119.382 877.659 130.629 877.659V875.659ZM112.324 856.659C112.324 846.132 120.553 837.659 130.629 837.659V835.659C119.382 835.659 110.324 845.095 110.324 856.659H112.324ZM130.629 837.659C140.706 837.659 148.934 846.132 148.934 856.659H150.934C150.934 845.095 141.876 835.659 130.629 835.659V837.659ZM329.596 813.809C329.596 821.575 323.528 827.809 316.117 827.809V829.809C324.699 829.809 331.596 822.612 331.596 813.809H329.596ZM316.117 827.809C308.706 827.809 302.638 821.575 302.638 813.809H300.638C300.638 822.612 307.535 829.809 316.117 829.809V827.809ZM302.638 813.809C302.638 806.043 308.706 799.809 316.117 799.809V797.809C307.535 797.809 300.638 805.006 300.638 813.809H302.638ZM316.117 799.809C323.528 799.809 329.596 806.043 329.596 813.809H331.596C331.596 805.006 324.699 797.809 316.117 797.809V799.809ZM451.329 833.809C451.329 841.575 445.262 847.809 437.851 847.809V849.809C446.432 849.809 453.329 842.612 453.329 833.809H451.329ZM437.851 847.809C430.44 847.809 424.372 841.575 424.372 833.809H422.372C422.372 842.612 429.269 849.809 437.851 849.809V847.809ZM424.372 833.809C424.372 826.043 430.44 819.809 437.851 819.809V817.809C429.269 817.809 422.372 825.006 422.372 833.809H424.372ZM437.851 819.809C445.262 819.809 451.329 826.043 451.329 833.809H453.329C453.329 825.006 446.432 817.809 437.851 817.809V819.809ZM639.133 878.809C639.133 886.575 633.066 892.809 625.655 892.809V894.809C634.236 894.809 641.133 887.612 641.133 878.809H639.133ZM625.655 892.809C618.244 892.809 612.176 886.575 612.176 878.809H610.176C610.176 887.612 617.073 894.809 625.655 894.809V892.809ZM612.176 878.809C612.176 871.043 618.244 864.809 625.655 864.809V862.809C617.073 862.809 610.176 870.006 610.176 878.809H612.176ZM625.655 864.809C633.066 864.809 639.133 871.043 639.133 878.809H641.133C641.133 870.006 634.236 862.809 625.655 862.809V864.809ZM676.746 828.809C676.746 836.575 670.678 842.809 663.267 842.809V844.809C671.849 844.809 678.746 837.612 678.746 828.809H676.746ZM663.267 842.809C655.856 842.809 649.788 836.575 649.788 828.809H647.788C647.788 837.612 654.685 844.809 663.267 844.809V842.809ZM649.788 828.809C649.788 821.043 655.856 814.809 663.267 814.809V812.809C654.685 812.809 647.788 820.006 647.788 828.809H649.788ZM663.267 814.809C670.678 814.809 676.746 821.043 676.746 828.809H678.746C678.746 820.006 671.849 812.809 663.267 812.809V814.809ZM746.147 968.809C746.147 976.575 740.079 982.809 732.668 982.809V984.809C741.25 984.809 748.147 977.612 748.147 968.809H746.147ZM732.668 982.809C725.257 982.809 719.19 976.575 719.19 968.809H717.19C717.19 977.612 724.087 984.809 732.668 984.809V982.809ZM719.19 968.809C719.19 961.044 725.257 954.809 732.668 954.809V952.809C724.087 952.809 717.19 960.006 717.19 968.809H719.19ZM732.668 954.809C740.079 954.809 746.147 961.044 746.147 968.809H748.147C748.147 960.006 741.25 952.809 732.668 952.809V954.809ZM949.339 886.659C949.339 894.425 943.271 900.659 935.86 900.659V902.659C944.442 902.659 951.339 895.462 951.339 886.659H949.339ZM935.86 900.659C928.449 900.659 922.382 894.425 922.382 886.659H920.382C920.382 895.462 927.279 902.659 935.86 902.659V900.659ZM922.382 886.659C922.382 878.894 928.449 872.659 935.86 872.659V870.659C927.279 870.659 920.382 877.856 920.382 886.659H922.382ZM935.86 872.659C943.271 872.659 949.339 878.894 949.339 886.659H951.339C951.339 877.856 944.442 870.659 935.86 870.659V872.659ZM996.604 833.809C996.604 841.575 990.536 847.809 983.125 847.809V849.809C991.707 849.809 998.604 842.612 998.604 833.809H996.604ZM983.125 847.809C975.714 847.809 969.647 841.575 969.647 833.809H967.647C967.647 842.612 974.544 849.809 983.125 849.809V847.809ZM969.647 833.809C969.647 826.043 975.714 819.809 983.125 819.809V817.809C974.544 817.809 967.647 825.006 967.647 833.809H969.647ZM983.125 819.809C990.536 819.809 996.604 826.043 996.604 833.809H998.604C998.604 825.006 991.707 817.809 983.125 817.809V819.809ZM1110.59 851.659C1110.59 859.425 1104.52 865.659 1097.11 865.659V867.659C1105.69 867.659 1112.59 860.462 1112.59 851.659H1110.59ZM1097.11 865.659C1089.7 865.659 1083.63 859.425 1083.63 851.659H1081.63C1081.63 860.462 1088.53 867.659 1097.11 867.659V865.659ZM1083.63 851.659C1083.63 843.894 1089.7 837.659 1097.11 837.659V835.659C1088.53 835.659 1081.63 842.856 1081.63 851.659H1083.63ZM1097.11 837.659C1104.52 837.659 1110.59 843.894 1110.59 851.659H1112.59C1112.59 842.856 1105.69 835.659 1097.11 835.659V837.659ZM1016.96 973.809C1016.96 981.575 1010.89 987.809 1003.48 987.809V989.809C1012.06 989.809 1018.96 982.612 1018.96 973.809H1016.96ZM1003.48 987.809C996.069 987.809 990.002 981.575 990.002 973.809H988.002C988.002 982.612 994.899 989.809 1003.48 989.809V987.809ZM990.002 973.809C990.002 966.044 996.069 959.809 1003.48 959.809V957.809C994.899 957.809 988.002 965.006 988.002 973.809H990.002ZM1003.48 959.809C1010.89 959.809 1016.96 966.044 1016.96 973.809H1018.96C1018.96 965.006 1012.06 957.809 1003.48 957.809V959.809ZM588.039 981.001C588.039 988.766 581.972 995.001 574.561 995.001V997.001C583.142 997.001 590.039 989.804 590.039 981.001H588.039ZM574.561 995.001C567.15 995.001 561.082 988.766 561.082 981.001H559.082C559.082 989.804 565.979 997.001 574.561 997.001V995.001ZM561.082 981.001C561.082 973.235 567.15 967 574.561 967V965C565.979 965 559.082 972.198 559.082 981.001H561.082ZM574.561 967C581.972 967 588.039 973.235 588.039 981.001H590.039C590.039 972.198 583.142 965 574.561 965V967ZM1192.78 861.659C1192.78 869.425 1186.71 875.659 1179.3 875.659V877.659C1187.89 877.659 1194.78 870.462 1194.78 861.659H1192.78ZM1179.3 875.659C1171.89 875.659 1165.82 869.425 1165.82 861.659H1163.82C1163.82 870.462 1170.72 877.659 1179.3 877.659V875.659ZM1165.82 861.659C1165.82 853.894 1171.89 847.659 1179.3 847.659V845.659C1170.72 845.659 1163.82 852.856 1163.82 861.659H1165.82ZM1179.3 847.659C1186.71 847.659 1192.78 853.894 1192.78 861.659H1194.78C1194.78 852.856 1187.89 845.659 1179.3 845.659V847.659ZM1291.38 821.659C1291.38 829.425 1285.31 835.659 1277.9 835.659V837.659C1286.48 837.659 1293.38 830.462 1293.38 821.659H1291.38ZM1277.9 835.659C1270.49 835.659 1264.42 829.425 1264.42 821.659H1262.42C1262.42 830.462 1269.32 837.659 1277.9 837.659V835.659ZM1264.42 821.659C1264.42 813.894 1270.49 807.659 1277.9 807.659V805.659C1269.32 805.659 1262.42 812.856 1262.42 821.659H1264.42ZM1277.9 807.659C1285.31 807.659 1291.38 813.894 1291.38 821.659H1293.38C1293.38 812.856 1286.48 805.659 1277.9 805.659V807.659ZM1398.36 868.809C1398.36 876.575 1392.29 882.809 1384.88 882.809V884.809C1393.46 884.809 1400.36 877.612 1400.36 868.809H1398.36ZM1384.88 882.809C1377.47 882.809 1371.4 876.575 1371.4 868.809H1369.4C1369.4 877.612 1376.29 884.809 1384.88 884.809V882.809ZM1371.4 868.809C1371.4 861.043 1377.47 854.809 1384.88 854.809V852.809C1376.29 852.809 1369.4 860.006 1369.4 868.809H1371.4ZM1384.88 854.809C1392.29 854.809 1398.36 861.043 1398.36 868.809H1400.36C1400.36 860.006 1393.46 852.809 1384.88 852.809V854.809ZM1373.75 786.659C1373.75 791.663 1369.84 795.659 1365.1 795.659V797.659C1371.01 797.659 1375.75 792.701 1375.75 786.659H1373.75ZM1365.1 795.659C1360.35 795.659 1356.44 791.663 1356.44 786.659H1354.44C1354.44 792.701 1359.18 797.659 1365.1 797.659V795.659ZM1356.44 786.659C1356.44 781.655 1360.35 777.659 1365.1 777.659V775.659C1359.18 775.659 1354.44 780.618 1354.44 786.659H1356.44ZM1365.1 777.659C1369.84 777.659 1373.75 781.655 1373.75 786.659H1375.75C1375.75 780.618 1371.01 775.659 1365.1 775.659V777.659ZM1276.9 773.809C1276.9 778.813 1273 782.809 1268.25 782.809V784.809C1274.17 784.809 1278.9 779.851 1278.9 773.809H1276.9ZM1268.25 782.809C1263.51 782.809 1259.6 778.813 1259.6 773.809H1257.6C1257.6 779.851 1262.33 784.809 1268.25 784.809V782.809ZM1259.6 773.809C1259.6 768.805 1263.51 764.809 1268.25 764.809V762.809C1262.33 762.809 1257.6 767.768 1257.6 773.809H1259.6ZM1268.25 764.809C1273 764.809 1276.9 768.805 1276.9 773.809H1278.9C1278.9 767.768 1274.17 762.809 1268.25 762.809V764.809ZM1164.56 796.659C1164.56 801.663 1160.66 805.659 1155.91 805.659V807.659C1161.83 807.659 1166.56 802.701 1166.56 796.659H1164.56ZM1155.91 805.659C1151.17 805.659 1147.26 801.663 1147.26 796.659H1145.26C1145.26 802.701 1150 807.659 1155.91 807.659V805.659ZM1147.26 796.659C1147.26 791.655 1151.17 787.659 1155.91 787.659V785.659C1150 785.659 1145.26 790.618 1145.26 796.659H1147.26ZM1155.91 787.659C1160.66 787.659 1164.56 791.655 1164.56 796.659H1166.56C1166.56 790.618 1161.83 785.659 1155.91 785.659V787.659ZM1048.77 808.809C1048.77 813.813 1044.86 817.809 1040.12 817.809V819.809C1046.04 819.809 1050.77 814.851 1050.77 808.809H1048.77ZM1040.12 817.809C1035.37 817.809 1031.47 813.813 1031.47 808.809H1029.47C1029.47 814.851 1034.2 819.809 1040.12 819.809V817.809ZM1031.47 808.809C1031.47 803.805 1035.37 799.809 1040.12 799.809V797.809C1034.2 797.809 1029.47 802.768 1029.47 808.809H1031.47ZM1040.12 799.809C1044.86 799.809 1048.77 803.805 1048.77 808.809H1050.77C1050.77 802.768 1046.04 797.809 1040.12 797.809V799.809ZM880.976 806.659C880.976 811.663 877.069 815.659 872.323 815.659V817.659C878.239 817.659 882.976 812.701 882.976 806.659H880.976ZM872.323 815.659C867.578 815.659 863.671 811.663 863.671 806.659H861.671C861.671 812.701 866.407 817.659 872.323 817.659V815.659ZM863.671 806.659C863.671 801.655 867.578 797.659 872.323 797.659V795.659C866.407 795.659 861.671 800.618 861.671 806.659H863.671ZM872.323 797.659C877.069 797.659 880.976 801.655 880.976 806.659H882.976C882.976 800.618 878.239 795.659 872.323 795.659V797.659ZM779.93 821.659C779.93 826.663 776.024 830.659 771.278 830.659V832.659C777.194 832.659 781.93 827.701 781.93 821.659H779.93ZM771.278 830.659C766.533 830.659 762.626 826.663 762.626 821.659H760.626C760.626 827.701 765.362 832.659 771.278 832.659V830.659ZM762.626 821.659C762.626 816.655 766.533 812.659 771.278 812.659V810.659C765.362 810.659 760.626 815.618 760.626 821.659H762.626ZM771.278 812.659C776.024 812.659 779.93 816.655 779.93 821.659H781.93C781.93 815.618 777.194 810.659 771.278 810.659V812.659ZM686.398 891.659C686.398 896.663 682.491 900.659 677.746 900.659V902.659C683.662 902.659 688.398 897.701 688.398 891.659H686.398ZM677.746 900.659C673 900.659 669.093 896.663 669.093 891.659H667.093C667.093 897.701 671.829 902.659 677.746 902.659V900.659ZM669.093 891.659C669.093 886.655 673 882.659 677.746 882.659V880.659C671.829 880.659 667.093 885.618 667.093 891.659H669.093ZM677.746 882.659C682.491 882.659 686.398 886.655 686.398 891.659H688.398C688.398 885.618 683.662 880.659 677.746 880.659V882.659ZM615.63 816.659C615.63 821.663 611.723 825.659 606.978 825.659V827.659C612.894 827.659 617.63 822.701 617.63 816.659H615.63ZM606.978 825.659C602.232 825.659 598.325 821.663 598.325 816.659H596.325C596.325 822.701 601.061 827.659 606.978 827.659V825.659ZM598.325 816.659C598.325 811.655 602.232 807.659 606.978 807.659V805.659C601.061 805.659 596.325 810.618 596.325 816.659H598.325ZM606.978 807.659C611.723 807.659 615.63 811.655 615.63 816.659H617.63C617.63 810.618 612.894 805.659 606.978 805.659V807.659ZM515.083 788.809C515.083 793.813 511.177 797.809 506.431 797.809V799.809C512.347 799.809 517.083 794.851 517.083 788.809H515.083ZM506.431 797.809C501.686 797.809 497.779 793.813 497.779 788.809H495.779C495.779 794.851 500.515 799.809 506.431 799.809V797.809ZM497.779 788.809C497.779 783.805 501.686 779.809 506.431 779.809V777.809C500.515 777.809 495.779 782.768 495.779 788.809H497.779ZM506.431 779.809C511.177 779.809 515.083 783.805 515.083 788.809H517.083C517.083 782.768 512.347 777.809 506.431 777.809V779.809ZM379.349 796.659C379.349 801.663 375.442 805.659 370.697 805.659V807.659C376.613 807.659 381.349 802.701 381.349 796.659H379.349ZM370.697 805.659C365.951 805.659 362.044 801.663 362.044 796.659H360.044C360.044 802.701 364.78 807.659 370.697 807.659V805.659ZM362.044 796.659C362.044 791.655 365.951 787.659 370.697 787.659V785.659C364.78 785.659 360.044 790.618 360.044 796.659H362.044ZM370.697 787.659C375.442 787.659 379.349 791.655 379.349 796.659H381.349C381.349 790.618 376.613 785.659 370.697 785.659V787.659ZM219.333 788.809C219.333 793.813 215.426 797.809 210.68 797.809V799.809C216.597 799.809 221.333 794.851 221.333 788.809H219.333ZM210.68 797.809C205.935 797.809 202.028 793.813 202.028 788.809H200.028C200.028 794.851 204.764 799.809 210.68 799.809V797.809ZM202.028 788.809C202.028 783.805 205.935 779.809 210.68 779.809V777.809C204.764 777.809 200.028 782.768 200.028 788.809H202.028ZM210.68 779.809C215.426 779.809 219.333 783.805 219.333 788.809H221.333C221.333 782.768 216.597 777.809 210.68 777.809V779.809ZM343.318 702.61C343.318 704.853 341.572 706.61 339.492 706.61V708.61C342.743 708.61 345.318 705.89 345.318 702.61H343.318ZM339.492 706.61C337.412 706.61 335.666 704.853 335.666 702.61H333.666C333.666 705.89 336.241 708.61 339.492 708.61V706.61ZM335.666 702.61C335.666 700.367 337.412 698.61 339.492 698.61V696.61C336.241 696.61 333.666 699.33 333.666 702.61H335.666ZM339.492 698.61C341.572 698.61 343.318 700.367 343.318 702.61H345.318C345.318 699.33 342.743 696.61 339.492 696.61V698.61ZM446.503 724.81C446.503 727.053 444.757 728.81 442.677 728.81V730.81C445.928 730.81 448.503 728.09 448.503 724.81H446.503ZM442.677 728.81C440.597 728.81 438.851 727.053 438.851 724.81H436.851C436.851 728.09 439.426 730.81 442.677 730.81V728.81ZM438.851 724.81C438.851 722.567 440.597 720.81 442.677 720.81V718.81C439.426 718.81 436.851 721.53 436.851 724.81H438.851ZM442.677 720.81C444.757 720.81 446.503 722.567 446.503 724.81H448.503C448.503 721.53 445.928 718.81 442.677 718.81V720.81ZM460.982 783.809C460.982 786.052 459.236 787.809 457.156 787.809V789.809C460.406 789.809 462.982 787.089 462.982 783.809H460.982ZM457.156 787.809C455.076 787.809 453.329 786.052 453.329 783.809H451.329C451.329 787.089 453.905 789.809 457.156 789.809V787.809ZM453.329 783.809C453.329 781.566 455.076 779.809 457.156 779.809V777.809C453.905 777.809 451.329 780.529 451.329 783.809H453.329ZM457.156 779.809C459.236 779.809 460.982 781.566 460.982 783.809H462.982C462.982 780.529 460.406 777.809 457.156 777.809V779.809ZM605.978 729.81C605.978 732.053 604.231 733.81 602.151 733.81V735.81C605.402 735.81 607.978 733.09 607.978 729.81H605.978ZM602.151 733.81C600.071 733.81 598.325 732.053 598.325 729.81H596.325C596.325 733.09 598.901 735.81 602.151 735.81V733.81ZM598.325 729.81C598.325 727.567 600.071 725.81 602.151 725.81V723.81C598.901 723.81 596.325 726.53 596.325 729.81H598.325ZM602.151 725.81C604.231 725.81 605.978 727.567 605.978 729.81H607.978C607.978 726.53 605.402 723.81 602.151 723.81V725.81ZM717.19 788.809C717.19 791.052 715.444 792.809 713.363 792.809V794.809C716.614 794.809 719.19 792.089 719.19 788.809H717.19ZM713.363 792.809C711.283 792.809 709.537 791.052 709.537 788.809H707.537C707.537 792.089 710.113 794.809 713.363 794.809V792.809ZM709.537 788.809C709.537 786.566 711.283 784.809 713.363 784.809V782.809C710.113 782.809 707.537 785.529 707.537 788.809H709.537ZM713.363 784.809C715.444 784.809 717.19 786.566 717.19 788.809H719.19C719.19 785.529 716.614 782.809 713.363 782.809V784.809ZM842.366 702.61C842.366 704.853 840.62 706.61 838.54 706.61V708.61C841.79 708.61 844.366 705.89 844.366 702.61H842.366ZM838.54 706.61C836.46 706.61 834.713 704.853 834.713 702.61H832.713C832.713 705.89 835.289 708.61 838.54 708.61V706.61ZM834.713 702.61C834.713 700.367 836.46 698.61 838.54 698.61V696.61C835.289 696.61 832.713 699.33 832.713 702.61H834.713ZM838.54 698.61C840.62 698.61 842.366 700.367 842.366 702.61H844.366C844.366 699.33 841.79 696.61 838.54 696.61V698.61ZM949.492 801.659C949.492 803.902 947.746 805.659 945.666 805.659V807.659C948.916 807.659 951.492 804.939 951.492 801.659H949.492ZM945.666 805.659C943.585 805.659 941.839 803.902 941.839 801.659H939.839C939.839 804.939 942.415 807.659 945.666 807.659V805.659ZM941.839 801.659C941.839 799.416 943.585 797.659 945.666 797.659V795.659C942.415 795.659 939.839 798.379 939.839 801.659H941.839ZM945.666 797.659C947.746 797.659 949.492 799.416 949.492 801.659H951.492C951.492 798.379 948.916 795.659 945.666 795.659V797.659ZM1046.66 714.81C1046.66 717.053 1044.91 718.81 1042.83 718.81V720.81C1046.08 720.81 1048.66 718.09 1048.66 714.81H1046.66ZM1042.83 718.81C1040.75 718.81 1039.01 717.053 1039.01 714.81H1037.01C1037.01 718.09 1039.58 720.81 1042.83 720.81V718.81ZM1039.01 714.81C1039.01 712.567 1040.75 710.81 1042.83 710.81V708.81C1039.58 708.81 1037.01 711.53 1037.01 714.81H1039.01ZM1042.83 710.81C1044.91 710.81 1046.66 712.567 1046.66 714.81H1048.66C1048.66 711.53 1046.08 708.81 1042.83 708.81V710.81ZM1183.13 658.727C1183.13 660.97 1181.38 662.727 1179.3 662.727V664.727C1182.55 664.727 1185.13 662.007 1185.13 658.727H1183.13ZM1179.3 662.727C1177.22 662.727 1175.48 660.97 1175.48 658.727H1173.48C1173.48 662.007 1176.05 664.727 1179.3 664.727V662.727ZM1175.48 658.727C1175.48 656.484 1177.22 654.727 1179.3 654.727V652.727C1176.05 652.727 1173.48 655.447 1173.48 658.727H1175.48ZM1179.3 654.727C1181.38 654.727 1183.13 656.484 1183.13 658.727H1185.13C1185.13 655.447 1182.55 652.727 1179.3 652.727V654.727ZM1226.57 734.81C1226.57 737.053 1224.82 738.81 1222.74 738.81V740.81C1225.99 740.81 1228.57 738.09 1228.57 734.81H1226.57ZM1222.74 738.81C1220.66 738.81 1218.91 737.053 1218.91 734.81H1216.91C1216.91 738.09 1219.49 740.81 1222.74 740.81V738.81ZM1218.91 734.81C1218.91 732.567 1220.66 730.81 1222.74 730.81V728.81C1219.49 728.81 1216.91 731.53 1216.91 734.81H1218.91ZM1222.74 730.81C1224.82 730.81 1226.57 732.567 1226.57 734.81H1228.57C1228.57 731.53 1225.99 728.81 1222.74 728.81V730.81ZM1364.57 683.238C1364.57 684.1 1363.91 684.738 1363.16 684.738V686.738C1365.08 686.738 1366.57 685.137 1366.57 683.238H1364.57ZM1363.16 684.738C1362.41 684.738 1361.75 684.1 1361.75 683.238H1359.75C1359.75 685.137 1361.24 686.738 1363.16 686.738V684.738ZM1361.75 683.238C1361.75 682.376 1362.41 681.738 1363.16 681.738V679.738C1361.24 679.738 1359.75 681.338 1359.75 683.238H1361.75ZM1363.16 681.738C1363.91 681.738 1364.57 682.376 1364.57 683.238H1366.57C1366.57 681.338 1365.08 679.738 1363.16 679.738V681.738ZM1286.32 606.162C1286.32 607.025 1285.65 607.662 1284.91 607.662V609.662C1286.82 609.662 1288.32 608.062 1288.32 606.162H1286.32ZM1284.91 607.662C1284.16 607.662 1283.49 607.024 1283.49 606.162H1281.49C1281.49 608.062 1282.99 609.662 1284.91 609.662V607.662ZM1283.49 606.162C1283.49 605.3 1284.16 604.662 1284.91 604.662V602.662C1282.99 602.662 1281.49 604.263 1281.49 606.162H1283.49ZM1284.91 604.662C1285.65 604.662 1286.32 605.3 1286.32 606.162H1288.32C1288.32 604.263 1286.82 602.662 1284.91 602.662V604.662ZM1145.26 560.864C1145.26 561.726 1144.59 562.364 1143.85 562.364V564.364C1145.76 564.364 1147.26 562.763 1147.26 560.864H1145.26ZM1143.85 562.364C1143.1 562.364 1142.43 561.726 1142.43 560.864H1140.43C1140.43 562.763 1141.93 564.364 1143.85 564.364V562.364ZM1142.43 560.864C1142.43 560.002 1143.1 559.364 1143.85 559.364V557.364C1141.93 557.364 1140.43 558.964 1140.43 560.864H1142.43ZM1143.85 559.364C1144.59 559.364 1145.26 560.002 1145.26 560.864H1147.26C1147.26 558.964 1145.76 557.364 1143.85 557.364V559.364ZM115.151 705.11C115.151 705.972 114.485 706.61 113.737 706.61V708.61C115.656 708.61 117.151 707.01 117.151 705.11H115.151ZM113.737 706.61C112.99 706.61 112.324 705.972 112.324 705.11H110.324C110.324 707.01 111.819 708.61 113.737 708.61V706.61ZM112.324 705.11C112.324 704.248 112.99 703.61 113.737 703.61V701.61C111.819 701.61 110.324 703.211 110.324 705.11H112.324ZM113.737 703.61C114.485 703.61 115.151 704.248 115.151 705.11H117.151C117.151 703.211 115.656 701.61 113.737 701.61V703.61ZM286.16 601.162C286.16 602.025 285.494 602.662 284.747 602.662V604.662C286.665 604.662 288.16 603.062 288.16 601.162H286.16ZM284.747 602.662C283.999 602.662 283.334 602.025 283.334 601.162H281.334C281.334 603.062 282.829 604.662 284.747 604.662V602.662ZM283.334 601.162C283.334 600.3 283.999 599.662 284.747 599.662V597.662C282.829 597.662 281.334 599.263 281.334 601.162H283.334ZM284.747 599.662C285.494 599.662 286.16 600.3 286.16 601.162H288.16C288.16 599.263 286.665 597.662 284.747 597.662V599.662ZM1416.93 52.7871C1416.93 39.5323 1427.67 28.7871 1440.93 28.7871V26.7871C1426.57 26.7871 1414.93 38.4277 1414.93 52.7871H1416.93ZM1440.93 28.7871C1454.18 28.7871 1464.93 39.5323 1464.93 52.7871H1466.93C1466.93 38.4277 1455.29 26.7871 1440.93 26.7871V28.7871ZM1464.93 52.7871C1464.93 66.042 1454.18 76.7871 1440.93 76.7871V78.7871C1455.29 78.7871 1466.93 67.1466 1466.93 52.7871H1464.93ZM1440.93 76.7871C1427.67 76.7871 1416.93 66.042 1416.93 52.7871H1414.93C1414.93 67.1466 1426.57 78.7871 1440.93 78.7871V76.7871ZM1213.66 96.3414C1213.66 83.0865 1224.4 72.3413 1237.66 72.3413V70.3413C1223.3 70.3413 1211.66 81.982 1211.66 96.3414H1213.66ZM1237.66 72.3413C1250.91 72.3413 1261.66 83.0865 1261.66 96.3414H1263.66C1263.66 81.982 1252.02 70.3413 1237.66 70.3413V72.3413ZM1261.66 96.3414C1261.66 109.596 1250.91 120.341 1237.66 120.341V122.341C1252.02 122.341 1263.66 110.701 1263.66 96.3414H1261.66ZM1237.66 120.341C1224.4 120.341 1213.66 109.596 1213.66 96.3414H1211.66C1211.66 110.701 1223.3 122.341 1237.66 122.341V120.341ZM1333.99 82C1333.99 68.7452 1344.74 58 1357.99 58V56C1343.63 56 1331.99 67.6406 1331.99 82H1333.99ZM1357.99 58C1371.25 58 1381.99 68.7452 1381.99 82H1383.99C1383.99 67.6406 1372.35 56 1357.99 56V58ZM1381.99 82C1381.99 95.2549 1371.25 106 1357.99 106V108C1372.35 108 1383.99 96.3594 1383.99 82H1381.99ZM1357.99 106C1344.74 106 1333.99 95.2549 1333.99 82H1331.99C1331.99 96.3594 1343.63 108 1357.99 108V106ZM1283.99 45.5957C1283.99 32.3409 1294.74 21.5957 1307.99 21.5957V19.5957C1293.63 19.5957 1281.99 31.2363 1281.99 45.5957H1283.99ZM1307.99 21.5957C1321.25 21.5957 1331.99 32.3409 1331.99 45.5957H1333.99C1333.99 31.2363 1322.35 19.5957 1307.99 19.5957V21.5957ZM1331.99 45.5957C1331.99 58.8506 1321.25 69.5957 1307.99 69.5957V71.5957C1322.35 71.5957 1333.99 59.9551 1333.99 45.5957H1331.99ZM1307.99 69.5957C1294.74 69.5957 1283.99 58.8506 1283.99 45.5957H1281.99C1281.99 59.9551 1293.63 71.5957 1307.99 71.5957V69.5957ZM1065.73 40.5957C1065.73 27.3409 1076.47 16.5957 1089.73 16.5957V14.5957C1075.37 14.5957 1063.73 26.2363 1063.73 40.5957H1065.73ZM1089.73 16.5957C1102.98 16.5957 1113.73 27.3409 1113.73 40.5957H1115.73C1115.73 26.2363 1104.08 14.5957 1089.73 14.5957V16.5957ZM1113.73 40.5957C1113.73 53.8506 1102.98 64.5957 1089.73 64.5957V66.5957C1104.08 66.5957 1115.73 54.9551 1115.73 40.5957H1113.73ZM1089.73 64.5957C1076.47 64.5957 1065.73 53.8506 1065.73 40.5957H1063.73C1063.73 54.9551 1075.37 66.5957 1089.73 66.5957V64.5957ZM1209.76 25.5957C1209.76 12.3409 1220.5 1.5957 1233.76 1.5957V-0.404297C1219.4 -0.404297 1207.76 11.2363 1207.76 25.5957H1209.76ZM1233.76 1.5957C1247.01 1.5957 1257.76 12.3409 1257.76 25.5957H1259.76C1259.76 11.2363 1248.12 -0.404297 1233.76 -0.404297V1.5957ZM1257.76 25.5957C1257.76 38.8506 1247.01 49.5957 1233.76 49.5957V51.5957C1248.12 51.5957 1259.76 39.9551 1259.76 25.5957H1257.76ZM1233.76 49.5957C1220.5 49.5957 1209.76 38.8506 1209.76 25.5957H1207.76C1207.76 39.9551 1219.4 51.5957 1233.76 51.5957V49.5957ZM1013.31 119.191C1013.31 105.937 1024.05 95.1915 1037.31 95.1915V93.1915C1022.95 93.1915 1011.31 104.832 1011.31 119.191H1013.31ZM1037.31 95.1915C1050.56 95.1915 1061.31 105.937 1061.31 119.191H1063.31C1063.31 104.832 1051.67 93.1915 1037.31 93.1915V95.1915ZM1061.31 119.191C1061.31 132.446 1050.56 143.191 1037.31 143.191V145.191C1051.67 145.191 1063.31 133.551 1063.31 119.191H1061.31ZM1037.31 143.191C1024.05 143.191 1013.31 132.446 1013.31 119.191H1011.31C1011.31 133.551 1022.95 145.191 1037.31 145.191V143.191ZM917.259 42C917.259 28.7452 928.004 18 941.259 18V16C926.899 16 915.259 27.6406 915.259 42H917.259ZM941.259 18C954.514 18 965.259 28.7452 965.259 42H967.259C967.259 27.6406 955.618 16 941.259 16V18ZM965.259 42C965.259 55.2549 954.514 66 941.259 66V68C955.618 68 967.259 56.3594 967.259 42H965.259ZM941.259 66C928.004 66 917.259 55.2549 917.259 42H915.259C915.259 56.3594 926.899 68 941.259 68V66ZM784.325 45.5957C784.325 32.3409 795.07 21.5957 808.325 21.5957V19.5957C793.966 19.5957 782.325 31.2363 782.325 45.5957H784.325ZM808.325 21.5957C821.58 21.5957 832.325 32.3409 832.325 45.5957H834.325C834.325 31.2363 822.685 19.5957 808.325 19.5957V21.5957ZM832.325 45.5957C832.325 58.8506 821.58 69.5957 808.325 69.5957V71.5957C822.685 71.5957 834.325 59.9551 834.325 45.5957H832.325ZM808.325 69.5957C795.07 69.5957 784.325 58.8506 784.325 45.5957H782.325C782.325 59.9551 793.966 71.5957 808.325 71.5957V69.5957ZM865.108 75.5957C865.108 62.3409 875.854 51.5957 889.108 51.5957V49.5957C874.749 49.5957 863.108 61.2363 863.108 75.5957H865.108ZM889.108 51.5957C902.363 51.5957 913.108 62.3409 913.108 75.5957H915.108C915.108 61.2363 903.468 49.5957 889.108 49.5957V51.5957ZM913.108 75.5957C913.108 88.8506 902.363 99.5958 889.108 99.5958V101.596C903.468 101.596 915.108 89.9551 915.108 75.5957H913.108ZM889.108 99.5958C875.854 99.5958 865.108 88.8506 865.108 75.5957H863.108C863.108 89.9551 874.749 101.596 889.108 101.596V99.5958ZM646.842 70.5957C646.842 57.3409 657.587 46.5957 670.842 46.5957V44.5957C656.482 44.5957 644.842 56.2363 644.842 70.5957H646.842ZM670.842 46.5957C684.097 46.5957 694.842 57.3409 694.842 70.5957H696.842C696.842 56.2363 685.201 44.5957 670.842 44.5957V46.5957ZM694.842 70.5957C694.842 83.8505 684.097 94.5958 670.842 94.5958V96.5958C685.201 96.5958 696.842 84.9551 696.842 70.5957H694.842ZM670.842 94.5958C657.587 94.5958 646.842 83.8505 646.842 70.5957H644.842C644.842 84.9551 656.482 96.5958 670.842 96.5958V94.5958ZM482.208 56.3413C482.208 43.0865 492.953 32.3413 506.208 32.3413V30.3413C491.849 30.3413 480.208 41.9819 480.208 56.3413H482.208ZM506.208 32.3413C519.463 32.3413 530.208 43.0865 530.208 56.3413H532.208C532.208 41.9819 520.567 30.3413 506.208 30.3413V32.3413ZM530.208 56.3413C530.208 69.5962 519.463 80.3413 506.208 80.3413V82.3413C520.567 82.3413 532.208 70.7007 532.208 56.3413H530.208ZM506.208 80.3413C492.953 80.3413 482.208 69.5962 482.208 56.3413H480.208C480.208 70.7007 491.849 82.3413 506.208 82.3413V80.3413ZM269.391 69.1914C269.391 55.9366 280.136 45.1914 293.391 45.1914V43.1914C279.031 43.1914 267.391 54.832 267.391 69.1914H269.391ZM293.391 45.1914C306.645 45.1914 317.391 55.9366 317.391 69.1914H319.391C319.391 54.832 307.75 43.1914 293.391 43.1914V45.1914ZM317.391 69.1914C317.391 82.4462 306.645 93.1915 293.391 93.1915V95.1915C307.75 95.1915 319.391 83.5508 319.391 69.1914H317.391ZM293.391 93.1915C280.136 93.1915 269.391 82.4462 269.391 69.1914H267.391C267.391 83.5508 279.031 95.1915 293.391 95.1915V93.1915ZM245.49 27.7871C245.49 14.5323 256.235 3.78712 269.49 3.78712V1.78712C255.131 1.78712 243.49 13.4277 243.49 27.7871H245.49ZM269.49 3.78712C282.745 3.78712 293.49 14.5323 293.49 27.7871H295.49C295.49 13.4277 283.85 1.78712 269.49 1.78712V3.78712ZM293.49 27.7871C293.49 41.042 282.745 51.7871 269.49 51.7871V53.7871C283.85 53.7871 295.49 42.1465 295.49 27.7871H293.49ZM269.49 51.7871C256.235 51.7871 245.49 41.042 245.49 27.7871H243.49C243.49 42.1465 255.131 53.7871 269.49 53.7871V51.7871ZM90.9238 37C90.9238 23.7452 101.669 13 114.924 13V11C100.564 11 88.9238 22.6406 88.9238 37H90.9238ZM114.924 13C128.179 13 138.924 23.7452 138.924 37H140.924C140.924 22.6406 129.283 11 114.924 11V13ZM138.924 37C138.924 50.2549 128.179 61 114.924 61V63C129.283 63 140.924 51.3594 140.924 37H138.924ZM114.924 61C101.669 61 90.9238 50.2549 90.9238 37H88.9238C88.9238 51.3594 100.564 63 114.924 63V61ZM108.007 111.341C108.007 100.848 116.513 92.3414 127.007 92.3414V90.3414C115.409 90.3414 106.007 99.7434 106.007 111.341H108.007ZM127.007 92.3414C137.5 92.3414 146.007 100.848 146.007 111.341H148.007C148.007 99.7434 138.605 90.3414 127.007 90.3414V92.3414ZM146.007 111.341C146.007 121.835 137.5 130.341 127.007 130.341V132.341C138.605 132.341 148.007 122.939 148.007 111.341H146.007ZM127.007 130.341C116.513 130.341 108.007 121.835 108.007 111.341H106.007C106.007 122.939 115.409 132.341 127.007 132.341V130.341ZM193.34 119.937C193.34 109.444 201.846 100.937 212.34 100.937V98.9371C200.742 98.9371 191.34 108.339 191.34 119.937H193.34ZM212.34 100.937C222.833 100.937 231.34 109.444 231.34 119.937H233.34C233.34 108.339 223.938 98.9371 212.34 98.9371V100.937ZM231.34 119.937C231.34 130.43 222.833 138.937 212.34 138.937V140.937C223.938 140.937 233.34 131.535 233.34 119.937H231.34ZM212.34 138.937C201.846 138.937 193.34 130.43 193.34 119.937H191.34C191.34 131.535 200.742 140.937 212.34 140.937V138.937ZM-24.9268 114.937C-24.9268 104.444 -16.4202 95.9371 -5.92676 95.9371V93.9371C-17.5247 93.9371 -26.9268 103.339 -26.9268 114.937H-24.9268ZM-5.92676 95.9371C4.56665 95.9371 13.0732 104.444 13.0732 114.937H15.0732C15.0732 103.339 5.67122 93.9371 -5.92676 93.9371V95.9371ZM13.0732 114.937C13.0732 125.43 4.56665 133.937 -5.92676 133.937V135.937C5.67122 135.937 15.0732 126.535 15.0732 114.937H13.0732ZM-5.92676 133.937C-16.4202 133.937 -24.9268 125.43 -24.9268 114.937H-26.9268C-26.9268 126.535 -17.5247 135.937 -5.92676 135.937V133.937ZM381.541 101.341C381.541 90.8479 390.048 82.3413 400.541 82.3413V80.3413C388.943 80.3413 379.541 89.7434 379.541 101.341H381.541ZM400.541 82.3413C411.034 82.3413 419.541 90.8479 419.541 101.341H421.541C421.541 89.7434 412.139 80.3413 400.541 80.3413V82.3413ZM419.541 101.341C419.541 111.835 411.034 120.341 400.541 120.341V122.341C412.139 122.341 421.541 112.939 421.541 101.341H419.541ZM400.541 120.341C390.048 120.341 381.541 111.835 381.541 101.341H379.541C379.541 112.939 388.943 122.341 400.541 122.341V120.341ZM345.308 22C345.308 11.5066 353.814 3 364.308 3V1C352.71 1 343.308 10.402 343.308 22H345.308ZM364.308 3C374.801 3 383.308 11.5066 383.308 22H385.308C385.308 10.402 375.906 1 364.308 1V3ZM383.308 22C383.308 32.4934 374.801 41 364.308 41V43C375.906 43 385.308 33.598 385.308 22H383.308ZM364.308 41C353.814 41 345.308 32.4934 345.308 22H343.308C343.308 33.598 352.71 43 364.308 43V41ZM573.191 124.191C573.191 113.698 581.698 105.191 592.191 105.191V103.191C580.593 103.191 571.191 112.593 571.191 124.191H573.191ZM592.191 105.191C602.685 105.191 611.191 113.698 611.191 124.191H613.191C613.191 112.593 603.789 103.191 592.191 103.191V105.191ZM611.191 124.191C611.191 134.685 602.685 143.191 592.191 143.191V145.191C603.789 145.191 613.191 135.789 613.191 124.191H611.191ZM592.191 143.191C581.698 143.191 573.191 134.685 573.191 124.191H571.191C571.191 135.789 580.593 145.191 592.191 145.191V143.191ZM578.55 44.1914C578.55 33.698 587.056 25.1914 597.55 25.1914V23.1914C585.952 23.1914 576.55 32.5934 576.55 44.1914H578.55ZM597.55 25.1914C608.043 25.1914 616.55 33.698 616.55 44.1914H618.55C618.55 32.5934 609.148 23.1914 597.55 23.1914V25.1914ZM616.55 44.1914C616.55 54.6848 608.043 63.1914 597.55 63.1914V65.1914C609.148 65.1914 618.55 55.7894 618.55 44.1914H616.55ZM597.55 63.1914C587.056 63.1914 578.55 54.6848 578.55 44.1914H576.55C576.55 55.7894 585.952 65.1914 597.55 65.1914V63.1914ZM682.875 124.191C682.875 113.698 691.382 105.191 701.875 105.191V103.191C690.277 103.191 680.875 112.593 680.875 124.191H682.875ZM701.875 105.191C712.368 105.191 720.875 113.698 720.875 124.191H722.875C722.875 112.593 713.473 103.191 701.875 103.191V105.191ZM720.875 124.191C720.875 134.685 712.368 143.191 701.875 143.191V145.191C713.473 145.191 722.875 135.789 722.875 124.191H720.875ZM701.875 143.191C691.382 143.191 682.875 134.685 682.875 124.191H680.875C680.875 135.789 690.277 145.191 701.875 145.191V143.191ZM892.259 126.341C892.259 115.848 900.765 107.341 911.259 107.341V105.341C899.661 105.341 890.259 114.743 890.259 126.341H892.259ZM911.259 107.341C921.752 107.341 930.259 115.848 930.259 126.341H932.259C932.259 114.743 922.857 105.341 911.259 105.341V107.341ZM930.259 126.341C930.259 136.835 921.752 145.341 911.259 145.341V147.341C922.857 147.341 932.259 137.939 932.259 126.341H930.259ZM911.259 145.341C900.765 145.341 892.259 136.835 892.259 126.341H890.259C890.259 137.939 899.661 147.341 911.259 147.341V145.341ZM1025.84 49.1914C1025.84 38.698 1034.35 30.1914 1044.84 30.1914V28.1914C1033.24 28.1914 1023.84 37.5935 1023.84 49.1914H1025.84ZM1044.84 30.1914C1055.34 30.1914 1063.84 38.698 1063.84 49.1914H1065.84C1065.84 37.5935 1056.44 28.1914 1044.84 28.1914V30.1914ZM1063.84 49.1914C1063.84 59.6849 1055.34 68.1914 1044.84 68.1914V70.1914C1056.44 70.1914 1065.84 60.7894 1065.84 49.1914H1063.84ZM1044.84 68.1914C1034.35 68.1914 1025.84 59.6849 1025.84 49.1914H1023.84C1023.84 60.7894 1033.24 70.1914 1044.84 70.1914V68.1914ZM1120.21 107C1120.21 96.5066 1128.72 88.0001 1139.21 88.0001V86.0001C1127.61 86.0001 1118.21 95.4021 1118.21 107H1120.21ZM1139.21 88.0001C1149.7 88.0001 1158.21 96.5066 1158.21 107H1160.21C1160.21 95.4021 1150.81 86.0001 1139.21 86.0001V88.0001ZM1158.21 107C1158.21 117.493 1149.7 126 1139.21 126V128C1150.81 128 1160.21 118.598 1160.21 107H1158.21ZM1139.21 126C1128.72 126 1120.21 117.493 1120.21 107H1118.21C1118.21 118.598 1127.61 128 1139.21 128V126ZM1311.59 151.341C1311.59 140.848 1320.1 132.341 1330.59 132.341V130.341C1318.99 130.341 1309.59 139.743 1309.59 151.341H1311.59ZM1330.59 132.341C1341.09 132.341 1349.59 140.848 1349.59 151.341H1351.59C1351.59 139.743 1342.19 130.341 1330.59 130.341V132.341ZM1349.59 151.341C1349.59 161.835 1341.09 170.341 1330.59 170.341V172.341C1342.19 172.341 1351.59 162.939 1351.59 151.341H1349.59ZM1330.59 170.341C1320.1 170.341 1311.59 161.835 1311.59 151.341H1309.59C1309.59 162.939 1318.99 172.341 1330.59 172.341V170.341ZM1124.43 194.191C1124.43 186.46 1130.69 180.191 1138.43 180.191V178.191C1129.59 178.191 1122.43 185.355 1122.43 194.191H1124.43ZM1138.43 180.191C1146.16 180.191 1152.43 186.46 1152.43 194.191H1154.43C1154.43 185.355 1147.26 178.191 1138.43 178.191V180.191ZM1152.43 194.191C1152.43 201.923 1146.16 208.192 1138.43 208.192V210.192C1147.26 210.192 1154.43 203.028 1154.43 194.191H1152.43ZM1138.43 208.192C1130.69 208.192 1124.43 201.923 1124.43 194.191H1122.43C1122.43 203.028 1129.59 210.192 1138.43 210.192V208.192ZM998.309 174.191C998.309 166.46 1004.58 160.191 1012.31 160.191V158.191C1003.47 158.191 996.309 165.355 996.309 174.191H998.309ZM1012.31 160.191C1020.04 160.191 1026.31 166.46 1026.31 174.191H1028.31C1028.31 165.355 1021.15 158.191 1012.31 158.191V160.191ZM1026.31 174.191C1026.31 181.923 1020.04 188.192 1012.31 188.192V190.192C1021.15 190.192 1028.31 183.028 1028.31 174.191H1026.31ZM1012.31 188.192C1004.58 188.192 998.309 181.923 998.309 174.191H996.309C996.309 183.028 1003.47 190.192 1012.31 190.192V188.192ZM803.742 129.191C803.742 121.459 810.01 115.191 817.742 115.191V113.191C808.906 113.191 801.742 120.355 801.742 129.191H803.742ZM817.742 115.191C825.474 115.191 831.742 121.459 831.742 129.191H833.742C833.742 120.355 826.579 113.191 817.742 113.191V115.191ZM831.742 129.191C831.742 136.923 825.474 143.191 817.742 143.191V145.191C826.579 145.191 833.742 138.028 833.742 129.191H831.742ZM817.742 143.191C810.01 143.191 803.742 136.923 803.742 129.191H801.742C801.742 138.028 808.906 145.191 817.742 145.191V143.191ZM764.775 179.191C764.775 171.46 771.043 165.191 778.775 165.191V163.191C769.939 163.191 762.775 170.355 762.775 179.191H764.775ZM778.775 165.191C786.507 165.191 792.775 171.46 792.775 179.191H794.775C794.775 170.355 787.612 163.191 778.775 163.191V165.191ZM792.775 179.191C792.775 186.923 786.507 193.191 778.775 193.191V195.191C787.612 195.191 794.775 188.028 794.775 179.191H792.775ZM778.775 193.191C771.043 193.191 764.775 186.923 764.775 179.191H762.775C762.775 188.028 769.939 195.191 778.775 195.191V193.191ZM692.875 39.1914C692.875 31.4594 699.143 25.1914 706.875 25.1914V23.1914C698.038 23.1914 690.875 30.3549 690.875 39.1914H692.875ZM706.875 25.1914C714.607 25.1914 720.875 31.4594 720.875 39.1914H722.875C722.875 30.3549 715.712 23.1914 706.875 23.1914V25.1914ZM720.875 39.1914C720.875 46.9234 714.607 53.1914 706.875 53.1914V55.1914C715.712 55.1914 722.875 48.028 722.875 39.1914H720.875ZM706.875 53.1914C699.143 53.1914 692.875 46.9234 692.875 39.1914H690.875C690.875 48.028 698.038 55.1914 706.875 55.1914V53.1914ZM482.366 121.341C482.366 113.609 488.634 107.341 496.366 107.341V105.341C487.53 105.341 480.366 112.505 480.366 121.341H482.366ZM496.366 107.341C504.098 107.341 510.366 113.609 510.366 121.341H512.366C512.366 112.505 505.203 105.341 496.366 105.341V107.341ZM510.366 121.341C510.366 129.073 504.098 135.341 496.366 135.341V137.341C505.203 137.341 512.366 130.178 512.366 121.341H510.366ZM496.366 135.341C488.634 135.341 482.366 129.073 482.366 121.341H480.366C480.366 130.178 487.53 137.341 496.366 137.341V135.341ZM433.399 174.191C433.399 166.46 439.667 160.191 447.399 160.191V158.191C438.563 158.191 431.399 165.355 431.399 174.191H433.399ZM447.399 160.191C455.131 160.191 461.399 166.46 461.399 174.191H463.399C463.399 165.355 456.236 158.191 447.399 158.191V160.191ZM461.399 174.191C461.399 181.923 455.131 188.192 447.399 188.192V190.192C456.236 190.192 463.399 183.028 463.399 174.191H461.399ZM447.399 188.192C439.667 188.192 433.399 181.923 433.399 174.191H431.399C431.399 183.028 438.563 190.192 447.399 190.192V188.192ZM315.308 156.341C315.308 148.609 321.576 142.341 329.308 142.341V140.341C320.471 140.341 313.308 147.505 313.308 156.341H315.308ZM329.308 142.341C337.04 142.341 343.308 148.609 343.308 156.341H345.308C345.308 147.505 338.144 140.341 329.308 140.341V142.341ZM343.308 156.341C343.308 164.073 337.04 170.341 329.308 170.341V172.341C338.144 172.341 345.308 165.178 345.308 156.341H343.308ZM329.308 170.341C321.576 170.341 315.308 164.073 315.308 156.341H313.308C313.308 165.178 320.471 172.341 329.308 172.341V170.341ZM412.312 34.1914C412.312 26.4594 418.58 20.1914 426.312 20.1914V18.1914C417.475 18.1914 410.312 25.3549 410.312 34.1914H412.312ZM426.312 20.1914C434.044 20.1914 440.312 26.4594 440.312 34.1914H442.312C442.312 25.3549 435.148 18.1914 426.312 18.1914V20.1914ZM440.312 34.1914C440.312 41.9234 434.044 48.1914 426.312 48.1914V50.1914C435.148 50.1914 442.312 43.028 442.312 34.1914H440.312ZM426.312 48.1914C418.58 48.1914 412.312 41.9234 412.312 34.1914H410.312C410.312 43.028 417.475 50.1914 426.312 50.1914V48.1914ZM856.676 27C856.676 19.268 862.944 13 870.676 13V11C861.839 11 854.676 18.1635 854.676 27H856.676ZM870.676 13C878.408 13 884.676 19.268 884.676 27H886.676C886.676 18.1635 879.512 11 870.676 11V13ZM884.676 27C884.676 34.732 878.408 41 870.676 41V43C879.512 43 886.676 35.8366 886.676 27H884.676ZM870.676 41C862.944 41 856.676 34.732 856.676 27H854.676C854.676 35.8366 861.839 43 870.676 43V41ZM230.157 146.341C230.157 138.609 236.425 132.341 244.157 132.341V130.341C235.321 130.341 228.157 137.505 228.157 146.341H230.157ZM244.157 132.341C251.889 132.341 258.157 138.609 258.157 146.341H260.157C260.157 137.505 252.994 130.341 244.157 130.341V132.341ZM258.157 146.341C258.157 154.073 251.889 160.341 244.157 160.341V162.341C252.994 162.341 260.157 155.178 260.157 146.341H258.157ZM244.157 160.341C236.425 160.341 230.157 154.073 230.157 146.341H228.157C228.157 155.178 235.321 162.341 244.157 162.341V160.341ZM128.007 186.341C128.007 178.609 134.275 172.341 142.007 172.341V170.341C133.17 170.341 126.007 177.505 126.007 186.341H128.007ZM142.007 172.341C149.739 172.341 156.007 178.609 156.007 186.341H158.007C158.007 177.505 150.843 170.341 142.007 170.341V172.341ZM156.007 186.341C156.007 194.073 149.739 200.341 142.007 200.341V202.341C150.843 202.341 158.007 195.178 158.007 186.341H156.007ZM142.007 200.341C134.275 200.341 128.007 194.073 128.007 186.341H126.007C126.007 195.178 133.17 202.341 142.007 202.341V200.341ZM17.1816 139.191C17.1816 131.459 23.4497 125.191 31.1816 125.191V123.191C22.3451 123.191 15.1816 130.355 15.1816 139.191H17.1816ZM31.1816 125.191C38.9136 125.191 45.1816 131.459 45.1816 139.191H47.1816C47.1816 130.355 40.0182 123.191 31.1816 123.191V125.191ZM45.1816 139.191C45.1816 146.923 38.9136 153.191 31.1816 153.191V155.191C40.0182 155.191 47.1816 148.028 47.1816 139.191H45.1816ZM31.1816 153.191C23.4497 153.191 17.1816 146.923 17.1816 139.191H15.1816C15.1816 148.028 22.3451 155.191 31.1816 155.191V153.191ZM42.6738 221.341C42.6738 216.371 46.7033 212.341 51.6738 212.341V210.341C45.5987 210.341 40.6738 215.266 40.6738 221.341H42.6738ZM51.6738 212.341C56.6444 212.341 60.6738 216.371 60.6738 221.341H62.6738C62.6738 215.266 57.749 210.341 51.6738 210.341V212.341ZM60.6738 221.341C60.6738 226.312 56.6444 230.341 51.6738 230.341V232.341C57.749 232.341 62.6738 227.417 62.6738 221.341H60.6738ZM51.6738 230.341C46.7033 230.341 42.6738 226.312 42.6738 221.341H40.6738C40.6738 227.417 45.5987 232.341 51.6738 232.341V230.341ZM143.007 234.192C143.007 229.221 147.036 225.192 152.007 225.192V223.192C145.932 223.192 141.007 228.116 141.007 234.192H143.007ZM152.007 225.192C156.977 225.192 161.007 229.221 161.007 234.192H163.007C163.007 228.116 158.082 223.192 152.007 223.192V225.192ZM161.007 234.192C161.007 239.162 156.977 243.192 152.007 243.192V245.192C158.082 245.192 163.007 240.267 163.007 234.192H161.007ZM152.007 243.192C147.036 243.192 143.007 239.162 143.007 234.192H141.007C141.007 240.267 145.932 245.192 152.007 245.192V243.192ZM259.391 211.341C259.391 206.371 263.42 202.341 268.391 202.341V200.341C262.315 200.341 257.391 205.266 257.391 211.341H259.391ZM268.391 202.341C273.361 202.341 277.391 206.371 277.391 211.341H279.391C279.391 205.266 274.466 200.341 268.391 200.341V202.341ZM277.391 211.341C277.391 216.312 273.361 220.341 268.391 220.341V222.341C274.466 222.341 279.391 217.417 279.391 211.341H277.391ZM268.391 220.341C263.42 220.341 259.391 216.312 259.391 211.341H257.391C257.391 217.417 262.315 222.341 268.391 222.341V220.341ZM379.354 199.192C379.354 194.221 383.383 190.192 388.354 190.192V188.192C382.278 188.192 377.354 193.116 377.354 199.192H379.354ZM388.354 190.192C393.324 190.192 397.354 194.221 397.354 199.192H399.354C399.354 193.116 394.429 188.192 388.354 188.192V190.192ZM397.354 199.192C397.354 204.162 393.324 208.192 388.354 208.192V210.192C394.429 210.192 399.354 205.267 399.354 199.192H397.354ZM388.354 208.192C383.383 208.192 379.354 204.162 379.354 199.192H377.354C377.354 205.267 382.278 210.192 388.354 210.192V208.192ZM553.191 201.341C553.191 196.371 557.221 192.341 562.191 192.341V190.341C556.116 190.341 551.191 195.266 551.191 201.341H553.191ZM562.191 192.341C567.162 192.341 571.191 196.371 571.191 201.341H573.191C573.191 195.266 568.267 190.341 562.191 190.341V192.341ZM571.191 201.341C571.191 206.312 567.162 210.341 562.191 210.341V212.341C568.267 212.341 573.191 207.417 573.191 201.341H571.191ZM562.191 210.341C557.221 210.341 553.191 206.312 553.191 201.341H551.191C551.191 207.417 556.116 212.341 562.191 212.341V210.341ZM657.875 186.341C657.875 181.371 661.904 177.341 666.875 177.341V175.341C660.8 175.341 655.875 180.266 655.875 186.341H657.875ZM666.875 177.341C671.846 177.341 675.875 181.371 675.875 186.341H677.875C677.875 180.266 672.95 175.341 666.875 175.341V177.341ZM675.875 186.341C675.875 191.312 671.846 195.341 666.875 195.341V197.341C672.95 197.341 677.875 192.417 677.875 186.341H675.875ZM666.875 195.341C661.904 195.341 657.875 191.312 657.875 186.341H655.875C655.875 192.417 660.8 197.341 666.875 197.341V195.341ZM754.775 116.341C754.775 111.371 758.805 107.341 763.775 107.341V105.341C757.7 105.341 752.775 110.266 752.775 116.341H754.775ZM763.775 107.341C768.746 107.341 772.775 111.371 772.775 116.341H774.775C774.775 110.266 769.851 105.341 763.775 105.341V107.341ZM772.775 116.341C772.775 121.312 768.746 125.341 763.775 125.341V127.341C769.851 127.341 774.775 122.416 774.775 116.341H772.775ZM763.775 125.341C758.805 125.341 754.775 121.312 754.775 116.341H752.775C752.775 122.416 757.7 127.341 763.775 127.341V125.341ZM828.092 191.341C828.092 186.371 832.121 182.341 837.092 182.341V180.341C831.017 180.341 826.092 185.266 826.092 191.341H828.092ZM837.092 182.341C842.062 182.341 846.092 186.371 846.092 191.341H848.092C848.092 185.266 843.167 180.341 837.092 180.341V182.341ZM846.092 191.341C846.092 196.312 842.062 200.341 837.092 200.341V202.341C843.167 202.341 848.092 197.417 848.092 191.341H846.092ZM837.092 200.341C832.121 200.341 828.092 196.312 828.092 191.341H826.092C826.092 197.417 831.017 202.341 837.092 202.341V200.341ZM932.259 219.192C932.259 214.221 936.288 210.192 941.259 210.192V208.192C935.184 208.192 930.259 213.116 930.259 219.192H932.259ZM941.259 210.192C946.229 210.192 950.259 214.221 950.259 219.192H952.259C952.259 213.116 947.334 208.192 941.259 208.192V210.192ZM950.259 219.192C950.259 224.162 946.229 228.192 941.259 228.192V230.192C947.334 230.192 952.259 225.267 952.259 219.192H950.259ZM941.259 228.192C936.288 228.192 932.259 224.162 932.259 219.192H930.259C930.259 225.267 935.184 230.192 941.259 230.192V228.192ZM1072.88 211.341C1072.88 206.371 1076.91 202.341 1081.88 202.341V200.341C1075.81 200.341 1070.88 205.266 1070.88 211.341H1072.88ZM1081.88 202.341C1086.85 202.341 1090.88 206.371 1090.88 211.341H1092.88C1092.88 205.266 1087.96 200.341 1081.88 200.341V202.341ZM1090.88 211.341C1090.88 216.312 1086.85 220.341 1081.88 220.341V222.341C1087.96 222.341 1092.88 217.417 1092.88 211.341H1090.88ZM1081.88 220.341C1076.91 220.341 1072.88 216.312 1072.88 211.341H1070.88C1070.88 217.417 1075.81 222.341 1081.88 222.341V220.341ZM1238.66 219.192C1238.66 214.221 1242.69 210.192 1247.66 210.192V208.192C1241.58 208.192 1236.66 213.116 1236.66 219.192H1238.66ZM1247.66 210.192C1252.63 210.192 1256.66 214.221 1256.66 219.192H1258.66C1258.66 213.116 1253.73 208.192 1247.66 208.192V210.192ZM1256.66 219.192C1256.66 224.162 1252.63 228.192 1247.66 228.192V230.192C1253.73 230.192 1258.66 225.267 1258.66 219.192H1256.66ZM1247.66 228.192C1242.69 228.192 1238.66 224.162 1238.66 219.192H1236.66C1236.66 225.267 1241.58 230.192 1247.66 230.192V228.192ZM1110.21 305.39C1110.21 303.181 1112 301.39 1114.21 301.39V299.39C1110.9 299.39 1108.21 302.077 1108.21 305.39H1110.21ZM1114.21 301.39C1116.42 301.39 1118.21 303.181 1118.21 305.39H1120.21C1120.21 302.077 1117.52 299.39 1114.21 299.39V301.39ZM1118.21 305.39C1118.21 307.599 1116.42 309.39 1114.21 309.39V311.39C1117.52 311.39 1120.21 308.704 1120.21 305.39H1118.21ZM1114.21 309.39C1112 309.39 1110.21 307.599 1110.21 305.39H1108.21C1108.21 308.704 1110.9 311.39 1114.21 311.39V309.39ZM1003.31 283.191C1003.31 280.982 1005.1 279.191 1007.31 279.191V277.191C1003.99 277.191 1001.31 279.877 1001.31 283.191H1003.31ZM1007.31 279.191C1009.52 279.191 1011.31 280.982 1011.31 283.191H1013.31C1013.31 279.877 1010.62 277.191 1007.31 277.191V279.191ZM1011.31 283.191C1011.31 285.4 1009.52 287.191 1007.31 287.191V289.191C1010.62 289.191 1013.31 286.504 1013.31 283.191H1011.31ZM1007.31 287.191C1005.1 287.191 1003.31 285.4 1003.31 283.191H1001.31C1001.31 286.504 1003.99 289.191 1007.31 289.191V287.191ZM988.309 224.192C988.309 221.982 990.099 220.192 992.309 220.192V218.192C988.995 218.192 986.309 220.878 986.309 224.192H988.309ZM992.309 220.192C994.518 220.192 996.309 221.982 996.309 224.192H998.309C998.309 220.878 995.622 218.192 992.309 218.192V220.192ZM996.309 224.192C996.309 226.401 994.518 228.192 992.309 228.192V230.192C995.622 230.192 998.309 227.505 998.309 224.192H996.309ZM992.309 228.192C990.099 228.192 988.309 226.401 988.309 224.192H986.309C986.309 227.505 988.995 230.192 992.309 230.192V228.192ZM838.092 278.191C838.092 275.982 839.883 274.191 842.092 274.191V272.191C838.778 272.191 836.092 274.877 836.092 278.191H838.092ZM842.092 274.191C844.301 274.191 846.092 275.982 846.092 278.191H848.092C848.092 274.877 845.406 272.191 842.092 272.191V274.191ZM846.092 278.191C846.092 280.4 844.301 282.191 842.092 282.191V284.191C845.406 284.191 848.092 281.504 848.092 278.191H846.092ZM842.092 282.191C839.883 282.191 838.092 280.4 838.092 278.191H836.092C836.092 281.504 838.778 284.191 842.092 284.191V282.191ZM722.875 219.192C722.875 216.982 724.666 215.192 726.875 215.192V213.192C723.561 213.192 720.875 215.878 720.875 219.192H722.875ZM726.875 215.192C729.084 215.192 730.875 216.982 730.875 219.192H732.875C732.875 215.878 730.189 213.192 726.875 213.192V215.192ZM730.875 219.192C730.875 221.401 729.084 223.192 726.875 223.192V225.192C730.189 225.192 732.875 222.505 732.875 219.192H730.875ZM726.875 223.192C724.666 223.192 722.875 221.401 722.875 219.192H720.875C720.875 222.505 723.561 225.192 726.875 225.192V223.192ZM593.191 305.39C593.191 303.181 594.982 301.39 597.191 301.39V299.39C593.878 299.39 591.191 302.077 591.191 305.39H593.191ZM597.191 301.39C599.401 301.39 601.191 303.181 601.191 305.39H603.191C603.191 302.077 600.505 299.39 597.191 299.39V301.39ZM601.191 305.39C601.191 307.599 599.401 309.39 597.191 309.39V311.39C600.505 311.39 603.191 308.704 603.191 305.39H601.191ZM597.191 309.39C594.982 309.39 593.191 307.599 593.191 305.39H591.191C591.191 308.704 593.878 311.39 597.191 311.39V309.39ZM482.208 206.341C482.208 204.132 483.999 202.341 486.208 202.341V200.341C482.894 200.341 480.208 203.028 480.208 206.341H482.208ZM486.208 202.341C488.417 202.341 490.208 204.132 490.208 206.341H492.208C492.208 203.028 489.522 200.341 486.208 200.341V202.341ZM490.208 206.341C490.208 208.551 488.417 210.341 486.208 210.341V212.341C489.522 212.341 492.208 209.655 492.208 206.341H490.208ZM486.208 210.341C483.999 210.341 482.208 208.551 482.208 206.341H480.208C480.208 209.655 482.894 212.341 486.208 212.341V210.341ZM381.541 293.191C381.541 290.982 383.332 289.191 385.541 289.191V287.191C382.227 287.191 379.541 289.877 379.541 293.191H381.541ZM385.541 289.191C387.75 289.191 389.541 290.982 389.541 293.191H391.541C391.541 289.877 388.855 287.191 385.541 287.191V289.191ZM389.541 293.191C389.541 295.4 387.75 297.191 385.541 297.191V299.191C388.855 299.191 391.541 296.504 391.541 293.191H389.541ZM385.541 297.191C383.332 297.191 381.541 295.4 381.541 293.191H379.541C379.541 296.504 382.227 299.191 385.541 299.191V297.191ZM240.157 349.274C240.157 347.065 241.948 345.274 244.157 345.274V343.274C240.844 343.274 238.157 345.96 238.157 349.274H240.157ZM244.157 345.274C246.366 345.274 248.157 347.065 248.157 349.274H250.157C250.157 345.96 247.471 343.274 244.157 343.274V345.274ZM248.157 349.274C248.157 351.483 246.366 353.274 244.157 353.274V355.274C247.471 355.274 250.157 352.587 250.157 349.274H248.157ZM244.157 353.274C241.948 353.274 240.157 351.483 240.157 349.274H238.157C238.157 352.587 240.844 355.274 244.157 355.274V353.274ZM195.157 273.191C195.157 270.982 196.948 269.191 199.157 269.191V267.191C195.844 267.191 193.157 269.877 193.157 273.191H195.157ZM199.157 269.191C201.366 269.191 203.157 270.982 203.157 273.191H205.157C205.157 269.877 202.471 267.191 199.157 267.191V269.191ZM203.157 273.191C203.157 275.4 201.366 277.191 199.157 277.191V279.191C202.471 279.191 205.157 276.504 205.157 273.191H203.157ZM199.157 277.191C196.948 277.191 195.157 275.4 195.157 273.191H193.157C193.157 276.504 195.844 279.191 199.157 279.191V277.191ZM52.1816 324.763C52.1816 323.934 52.8532 323.263 53.6816 323.263V321.263C51.7486 321.263 50.1816 322.83 50.1816 324.763H52.1816ZM53.6816 323.263C54.5101 323.263 55.1816 323.934 55.1816 324.763H57.1816C57.1816 322.83 55.6146 321.263 53.6816 321.263V323.263ZM55.1816 324.763C55.1816 325.591 54.5101 326.263 53.6816 326.263V328.263C55.6146 328.263 57.1816 326.696 57.1816 324.763H55.1816ZM53.6816 326.263C52.8532 326.263 52.1816 325.591 52.1816 324.763H50.1816C50.1816 326.696 51.7486 328.263 53.6816 328.263V326.263ZM133.253 401.838C133.253 401.01 133.924 400.338 134.753 400.338V398.338C132.82 398.338 131.253 399.905 131.253 401.838H133.253ZM134.753 400.338C135.581 400.338 136.253 401.01 136.253 401.838H138.253C138.253 399.905 136.686 398.338 134.753 398.338V400.338ZM136.253 401.838C136.253 402.667 135.581 403.338 134.753 403.338V405.338C136.686 405.338 138.253 403.771 138.253 401.838H136.253ZM134.753 403.338C133.924 403.338 133.253 402.667 133.253 401.838H131.253C131.253 403.771 132.82 405.338 134.753 405.338V403.338ZM279.391 447.137C279.391 446.309 280.062 445.637 280.891 445.637V443.637C278.958 443.637 277.391 445.204 277.391 447.137H279.391ZM280.891 445.637C281.719 445.637 282.391 446.309 282.391 447.137H284.391C284.391 445.204 282.824 443.637 280.891 443.637V445.637ZM282.391 447.137C282.391 447.966 281.719 448.637 280.891 448.637V450.637C282.824 450.637 284.391 449.07 284.391 447.137H282.391ZM280.891 448.637C280.062 448.637 279.391 447.966 279.391 447.137H277.391C277.391 449.07 278.958 450.637 280.891 450.637V448.637ZM1346.59 302.89C1346.59 302.062 1347.26 301.39 1348.09 301.39V299.39C1346.16 299.39 1344.59 300.957 1344.59 302.89H1346.59ZM1348.09 301.39C1348.92 301.39 1349.59 302.062 1349.59 302.89H1351.59C1351.59 300.957 1350.03 299.39 1348.09 299.39V301.39ZM1349.59 302.89C1349.59 303.719 1348.92 304.39 1348.09 304.39V306.39C1350.03 306.39 1351.59 304.823 1351.59 302.89H1349.59ZM1348.09 304.39C1347.26 304.39 1346.59 303.719 1346.59 302.89H1344.59C1344.59 304.823 1346.16 306.39 1348.09 306.39V304.39ZM1169.43 406.838C1169.43 406.01 1170.1 405.338 1170.93 405.338V403.338C1168.99 403.338 1167.43 404.905 1167.43 406.838H1169.43ZM1170.93 405.338C1171.75 405.338 1172.43 406.01 1172.43 406.838H1174.43C1174.43 404.905 1172.86 403.338 1170.93 403.338V405.338ZM1172.43 406.838C1172.43 407.667 1171.75 408.338 1170.93 408.338V410.338C1172.86 410.338 1174.43 408.771 1174.43 406.838H1172.43ZM1170.93 408.338C1170.1 408.338 1169.43 407.667 1169.43 406.838H1167.43C1167.43 408.771 1168.99 410.338 1170.93 410.338V408.338Z" fill="#246681" mask="url(#path-1-inside-1_359_222)"/>
</g>
</svg>
